<?xml version="1.0" standalone="no"?>
<!DOCTYPE svg PUBLIC "-//W3C//DTD SVG 20010904//EN"
 "http://www.w3.org/TR/2001/REC-SVG-20010904/DTD/svg10.dtd">
<svg version="1.0" xmlns="http://www.w3.org/2000/svg"
 width="3000.000000pt" height="3000.000000pt" viewBox="0 0 3000.000000 3000.000000"
 preserveAspectRatio="xMidYMid meet">

<g transform="translate(0.000000,3000.000000) scale(0.100000,-0.100000)"
fill="#000000" stroke="none">
<path d="M16188 26103 c-53 -201 -51 -125 -44 -1549 l7 -1331 -133 -7 c-210
-11 -1383 -75 -1483 -81 -49 -3 -376 -21 -725 -40 -349 -19 -654 -36 -677 -38
-24 -1 -43 -4 -43 -7 0 -3 -82 -6 -182 -8 -99 -1 -186 -5 -191 -9 -5 -3 -45
-5 -88 -4 -44 1 -83 -1 -89 -4 -5 -3 -47 -8 -92 -10 -46 -2 -130 -6 -188 -9
-58 -3 -115 -5 -128 -6 -13 0 -20 -5 -17 -10 3 -6 1 -10 -4 -10 -6 0 -11 5
-11 10 0 6 -10 10 -22 10 -19 0 -20 -2 -8 -10 9 -6 10 -10 3 -10 -6 0 -15 5
-18 10 -3 6 -15 10 -26 10 -11 0 -17 -4 -14 -10 3 -5 1 -10 -4 -10 -6 0 -11 4
-11 10 0 5 -6 7 -13 4 -14 -5 -147 -13 -257 -15 -36 0 -59 -3 -52 -6 6 -2 10
-9 7 -13 -3 -5 -12 -7 -20 -4 -8 4 -13 9 -11 13 3 4 -11 5 -30 3 -18 -2 -31
-8 -28 -13 3 -5 0 -9 -5 -9 -6 0 -11 5 -11 10 0 6 -18 10 -40 10 -23 0 -40 -5
-40 -11 0 -8 -4 -8 -12 -1 -8 5 -31 6 -58 2 l-45 -7 33 -8 c28 -7 45 -24 25
-26 -5 0 -23 -2 -40 -3 -18 -2 -31 0 -28 4 3 4 -2 10 -10 13 -10 4 -12 1 -8
-11 7 -18 5 -17 -17 12 -8 11 -10 17 -5 14 6 -3 19 -2 30 3 15 6 11 8 -17 7
-20 -1 -34 -6 -32 -10 3 -4 -4 -8 -16 -8 -14 0 -19 4 -14 13 6 9 4 9 -7 1 -8
-5 -29 -10 -47 -10 -22 1 -31 -3 -27 -12 3 -9 0 -10 -14 -3 -12 7 -21 7 -29
-1 -5 -5 -16 -7 -22 -3 -9 6 -9 10 1 16 11 7 10 9 -3 9 -9 0 -19 -6 -21 -12
-4 -10 -6 -10 -6 0 -1 6 -6 12 -12 12 -5 0 -8 -4 -5 -9 4 -5 -11 -7 -34 -4
-25 4 -40 2 -40 -5 0 -6 12 -13 28 -15 25 -4 25 -4 -5 -6 -25 -1 -33 3 -33 16
0 15 -1 15 -13 -1 -11 -15 -16 -16 -28 -5 -16 16 -54 25 -45 11 3 -6 -1 -12
-9 -16 -8 -3 -15 0 -15 7 0 7 -3 8 -8 2 -8 -12 -42 -13 -59 -2 -7 5 -20 0 -31
-11 -12 -12 -31 -18 -50 -17 -18 1 -32 -3 -32 -8 0 -6 -3 -8 -6 -4 -3 3 -2 13
4 23 6 11 12 13 16 6 7 -12 36 -5 36 8 0 8 -34 6 -68 -5 -17 -6 -20 -10 -11
-16 8 -4 11 -11 7 -14 -3 -3 -12 0 -19 8 -24 23 -47 27 -54 9 -6 -16 -7 -16
-20 1 -10 13 -14 15 -18 5 -4 -10 -6 -10 -6 0 -1 6 -9 12 -18 12 -15 0 -14 -2
2 -14 11 -8 23 -12 27 -10 4 2 9 0 13 -6 4 -6 10 -8 15 -5 4 3 6 -4 3 -15 -4
-16 -8 -18 -19 -9 -18 15 -30 4 -16 -14 12 -14 6 -27 -12 -27 -6 0 -4 5 4 11
12 9 12 10 -3 5 -10 -3 -25 1 -34 9 -8 8 -20 12 -26 8 -6 -4 -2 -9 10 -14 30
-11 38 -29 14 -29 -12 0 -21 5 -21 11 0 6 -9 8 -21 4 -14 -5 -19 -3 -15 3 3 6
1 14 -5 18 -6 3 -15 0 -20 -7 -7 -11 -9 -10 -9 4 0 10 -5 15 -10 12 -6 -4 -7
-11 -4 -17 4 -7 2 -8 -4 -4 -9 5 -9 13 -2 27 9 16 14 17 32 8 15 -8 19 -8 13
0 -5 8 2 10 22 5 15 -4 30 -7 33 -6 23 0 30 3 26 11 -3 4 -17 6 -31 3 -31 -5
-33 6 -2 17 18 8 14 9 -21 8 -30 -1 -41 -5 -38 -14 3 -7 1 -13 -4 -13 -6 0
-10 5 -10 10 0 17 -22 11 -27 -8 -6 -25 -71 -25 -78 -1 -6 19 -47 18 -54 -2
-2 -6 -11 -3 -24 8 -11 10 -17 12 -13 6 5 -9 -1 -13 -22 -13 -16 0 -51 -3 -77
-7 -37 -5 -46 -3 -40 6 5 10 3 11 -11 4 -17 -7 -42 -9 -69 -3 -5 1 -28 1 -50
0 -48 -2 -73 -20 -29 -21 16 0 45 -2 64 -4 19 -1 74 -4 122 -6 64 -2 89 -7 93
-17 3 -10 0 -12 -10 -8 -8 3 -15 1 -15 -3 0 -5 6 -12 13 -14 6 -3 2 -6 -11 -6
-13 -1 -21 3 -18 8 3 5 -1 12 -10 15 -8 3 -12 2 -9 -3 3 -5 1 -13 -5 -16 -8
-5 -7 -12 2 -23 12 -16 11 -16 -6 -2 -17 13 -19 13 -14 0 2 -8 18 -18 34 -21
27 -6 27 -7 4 -8 -34 -1 -49 10 -47 36 0 12 5 19 9 17 4 -3 8 -1 8 4 0 15 -28
22 -33 9 -3 -9 -8 -9 -20 1 -9 8 -21 11 -26 7 -6 -3 -20 -1 -31 5 -13 7 -20 7
-20 0 0 -5 5 -10 10 -10 6 0 10 -4 10 -10 0 -6 -9 -6 -26 1 -19 6 -37 6 -60
-1 -19 -6 -39 -8 -46 -4 -8 5 -7 1 2 -11 14 -17 13 -17 -10 -10 -14 4 -28 12
-31 17 -4 6 -16 7 -27 4 -15 -5 -24 -1 -31 13 -16 29 -14 34 13 27 12 -3 26
-3 29 0 8 8 -3 34 -15 34 -5 0 -7 -4 -3 -9 3 -5 -7 -11 -22 -13 -20 -2 -27 -8
-25 -21 2 -14 -2 -17 -23 -13 -17 3 -23 1 -19 -6 5 -8 1 -9 -10 -5 -10 4 -20
7 -22 7 -2 0 -4 7 -4 16 0 8 4 13 9 9 5 -3 13 0 17 6 4 8 3 9 -4 5 -7 -4 -12
-3 -12 3 0 6 -7 8 -15 5 -8 -4 -12 -11 -8 -18 3 -6 3 -8 -2 -4 -12 11 -36 -12
-28 -26 4 -6 -1 -5 -11 3 -11 9 -37 14 -73 12 -34 -1 -59 2 -63 9 -6 9 -13 9
-28 1 -26 -14 -42 -14 -42 -1 0 6 10 11 23 11 19 1 20 2 3 6 -12 3 -25 -2 -33
-13 -7 -10 -13 -13 -13 -8 0 6 -16 10 -35 11 -19 1 -35 -3 -35 -9 0 -5 5 -6
11 -2 7 4 9 -2 7 -17 -2 -13 -9 -23 -16 -21 -6 1 -12 -4 -12 -10 0 -17 58 -50
65 -37 4 5 1 9 -5 9 -6 0 -8 5 -5 10 4 6 12 7 18 3 7 -4 6 0 -2 10 -7 9 -16
15 -20 13 -4 -3 -7 4 -7 15 0 14 5 18 16 13 8 -3 29 -8 45 -11 38 -6 42 -10
25 -26 -10 -10 -11 -9 -5 2 6 11 4 13 -9 8 -10 -4 -20 -7 -22 -7 -2 0 -4 -5
-4 -10 0 -6 5 -9 11 -8 16 4 20 -30 4 -36 -9 -3 -12 0 -8 10 3 7 0 14 -6 14
-6 0 -11 -3 -12 -7 -5 -50 -11 -57 -53 -60 -28 -1 -32 2 -32 23 0 14 6 24 14
24 7 0 10 -5 6 -12 -4 -7 -3 -8 4 -4 19 11 14 26 -10 35 -18 7 -27 4 -38 -11
-15 -18 -16 -18 -16 15 0 25 4 34 16 33 8 -1 14 5 12 12 -1 6 2 12 8 12 5 0
10 5 10 10 0 17 -28 11 -33 -7 -4 -14 -5 -13 -6 3 0 12 -7 24 -13 26 -7 3
-485 -21 -1063 -53 -577 -32 -1597 -87 -2265 -123 -668 -36 -1260 -71 -1315
-77 -726 -80 -1328 -730 -1424 -1539 -6 -52 -66 -819 -132 -1705 -66 -885
-256 -3437 -424 -5670 -167 -2233 -307 -4114 -310 -4180 -8 -137 6 -307 35
-452 133 -646 597 -1112 1180 -1182 47 -6 362 -24 700 -41 338 -16 932 -46
1320 -65 388 -19 1172 -57 1744 -85 571 -28 1040 -49 1043 -47 2 3 29 412 58
908 30 497 64 1053 75 1234 11 182 31 519 45 750 14 231 29 492 35 580 6 88
40 646 75 1240 69 1137 108 1774 125 2040 6 88 12 196 15 240 4 70 8 119 19
290 1 22 11 53 21 68 10 15 15 30 11 34 -3 3 -6 1 -6 -5 0 -7 -4 -12 -10 -12
-5 0 -10 7 -10 15 0 8 6 15 13 15 8 0 7 4 -3 10 -13 8 -12 10 3 10 12 0 17 8
16 28 l-1 27 -8 -25 c-7 -21 -8 -22 -10 -5 -5 64 3 192 13 204 10 12 9 13 -1
7 -11 -7 -12 -4 -3 13 7 12 11 27 10 34 -3 27 4 91 8 70 4 -21 6 -22 29 -7 13
9 21 21 18 26 -4 6 -10 5 -15 -3 -7 -11 -9 -9 -10 6 0 11 -2 35 -5 53 -2 17 1
32 6 32 6 0 9 -6 8 -12 -4 -18 25 -16 29 2 4 13 3 13 -6 0 -9 -12 -11 -9 -10
15 0 17 3 24 6 18 3 -10 10 -10 25 -2 19 10 19 11 2 23 -17 13 -16 14 4 25 21
11 22 9 24 -26 2 -63 -1 -84 -16 -94 -4 -4 -3 -9 3 -13 6 -4 13 4 17 19 8 30
23 33 21 4 -1 -12 -11 -26 -22 -31 -23 -10 -51 -48 -36 -48 6 0 15 8 20 18 6
9 11 13 11 7 0 -5 4 -4 9 4 6 10 10 10 16 1 4 -7 -1 -13 -14 -17 -12 -3 -21
-10 -21 -15 0 -6 -14 -8 -34 -5 -33 5 -34 4 -27 -16 5 -12 6 -28 4 -34 -3 -7
0 -13 6 -13 5 0 8 11 5 25 -3 20 0 25 15 25 15 0 19 -7 17 -31 0 -21 4 -33 14
-36 12 -4 12 -3 2 5 -11 8 -11 10 1 15 20 8 41 -8 34 -27 -4 -9 -2 -16 3 -16
5 0 -2 -11 -15 -25 -14 -13 -25 -30 -25 -37 0 -7 12 1 26 17 14 17 23 25 20
18 -10 -19 5 -43 28 -44 16 -1 14 -3 -9 -10 -16 -5 -36 -7 -43 -4 -7 3 -15 -2
-18 -10 -4 -8 -13 -15 -22 -15 -13 0 -13 2 2 13 16 11 17 17 7 36 -14 25 -31
19 -31 -10 0 -11 -4 -17 -10 -14 -6 4 -7 -1 -3 -12 5 -15 3 -16 -8 -5 -7 6
-18 12 -24 12 -5 0 -2 -7 8 -15 11 -7 25 -11 33 -8 13 5 19 -12 15 -44 -1 -6
3 -14 9 -18 5 -3 7 0 4 8 -3 8 0 18 6 22 9 6 9 10 -1 16 -10 6 -6 8 10 6 13
-1 28 -9 34 -18 10 -16 12 -16 25 -1 12 15 13 14 8 -10 -5 -22 -3 -27 13 -25
11 0 19 4 18 7 -3 13 28 48 39 43 13 -5 14 14 1 34 -4 6 -4 14 0 16 12 7 45
-7 44 -18 -1 -6 3 -10 8 -10 5 0 13 -4 17 -8 5 -5 13 6 19 24 11 32 42 49 42
23 0 -7 -3 -12 -6 -11 -6 2 -11 -7 -11 -18 0 -3 9 -1 20 5 14 7 20 7 20 0 0
-5 -6 -10 -14 -10 -12 0 -12 -6 -3 -29 6 -17 16 -27 21 -24 6 4 1 -5 -11 -19
-29 -31 -29 -41 0 -36 17 3 23 0 22 -11 -4 -33 -17 -50 -33 -44 -9 4 -14 3
-10 -2 4 -4 3 -14 -2 -20 -8 -9 -6 -15 6 -19 10 -4 20 -2 24 4 11 17 38 1 43
-27 3 -17 -2 -31 -14 -41 -23 -20 -24 -28 -3 -36 13 -5 14 -3 7 6 -7 9 -4 18
9 31 10 9 21 17 26 17 12 -1 14 40 3 54 -8 10 -6 17 8 30 13 12 21 14 26 6 4
-6 1 -9 -7 -8 -7 2 -11 -3 -9 -12 2 -8 4 -25 4 -38 -1 -21 0 -22 12 -5 9 12
10 20 3 24 -7 4 -6 9 2 14 17 11 26 -4 13 -24 -7 -11 -8 -23 -2 -32 7 -11 9
-11 9 4 0 9 6 16 13 15 7 -2 12 7 12 23 -1 18 4 26 15 24 8 -1 24 5 35 14 17
14 18 14 7 0 -6 -9 -8 -19 -4 -23 4 -4 1 -6 -6 -4 -8 1 -21 -7 -29 -19 -14
-21 -14 -23 0 -23 9 0 17 6 20 13 2 6 2 1 0 -13 -6 -34 -12 -38 -28 -17 -7 10
-16 14 -19 9 -12 -20 22 -35 55 -23 23 8 29 8 26 -2 -2 -6 -9 -11 -14 -10 -5
1 -9 -8 -10 -20 0 -12 1 -16 4 -9 3 6 10 9 15 6 7 -5 8 -2 3 6 -6 10 -4 12 8
7 9 -3 19 -2 22 3 4 6 11 10 16 10 6 0 8 -4 5 -9 -3 -5 7 -11 24 -13 19 -3 31
0 35 10 3 10 0 12 -10 9 -8 -4 -17 -3 -19 2 -7 11 27 10 41 -1 7 -5 17 -7 22
-4 5 4 13 2 16 -4 4 -6 1 -9 -5 -8 -7 2 -14 -8 -16 -21 -5 -29 -11 -37 -20
-28 -4 4 -1 13 5 21 9 11 9 16 0 22 -7 4 -9 3 -6 -3 4 -6 0 -16 -8 -23 -12
-10 -15 -10 -15 3 0 20 -57 28 -75 11 -7 -7 -16 -10 -20 -6 -5 4 -5 1 -1 -6 7
-11 11 -11 24 1 19 16 68 5 57 -13 -3 -5 -1 -10 4 -10 6 0 11 -8 11 -17 0 -15
2 -16 10 -3 5 8 12 12 15 9 9 -9 -6 -40 -16 -33 -5 3 -9 2 -8 -3 4 -21 -3 -21
-21 -3 -21 21 -46 28 -35 10 3 -5 13 -10 21 -10 8 0 13 -4 10 -9 -3 -5 2 -12
11 -16 16 -6 15 -8 -7 -26 -14 -12 -18 -17 -10 -13 8 4 22 13 31 21 15 12 17
11 17 -11 -1 -34 23 -63 48 -61 12 1 30 -4 40 -12 17 -12 17 -13 -3 -13 -11 0
-25 -10 -32 -22 l-11 -23 6 23 c6 26 -20 32 -30 6 -3 -8 -2 -12 4 -9 10 6 14
-7 11 -34 -3 -21 19 -2 30 26 6 18 14 23 28 18 14 -4 18 -1 17 17 -1 13 -7 22
-15 20 -9 -2 -11 3 -7 13 7 20 -11 58 -25 50 -5 -4 -9 -11 -9 -16 0 -6 5 -7
11 -3 7 4 10 1 7 -7 -3 -8 -13 -15 -24 -17 -24 -3 -31 33 -8 42 9 3 12 10 9
16 -3 5 0 7 8 5 7 -3 25 0 38 7 21 11 25 19 22 43 -3 16 -1 26 4 21 4 -4 8
-13 8 -19 0 -7 7 -11 15 -10 9 2 21 -6 28 -17 7 -11 8 -20 3 -20 -6 0 -12 4
-15 9 -4 5 -18 5 -36 -2 -21 -8 -26 -14 -17 -20 8 -6 6 -7 -5 -3 -22 7 -24
-12 -3 -20 8 -4 13 -10 10 -14 -3 -5 5 -6 17 -2 14 3 19 2 14 -7 -4 -6 -9 -22
-12 -36 -3 -19 -1 -23 11 -19 19 8 19 -7 0 -32 -8 -11 -15 -14 -15 -6 0 6 -5
12 -11 12 -8 0 -8 -4 0 -13 8 -10 7 -17 -1 -25 -9 -9 -9 -12 -1 -12 6 0 21 12
32 26 12 15 21 22 21 16 0 -6 7 -9 15 -6 14 6 13 8 -2 21 -11 9 -12 12 -3 8
12 -5 12 -4 -1 7 -9 7 -19 22 -23 33 -5 17 -1 21 21 23 15 1 30 -3 34 -10 5
-7 11 -9 16 -5 4 5 1 12 -6 16 -16 10 -6 31 14 31 7 0 15 -7 19 -15 3 -8 12
-15 21 -15 14 0 20 -25 16 -75 -1 -15 0 -17 7 -7 7 11 10 10 16 -3 4 -10 12
-15 22 -11 8 3 12 2 9 -4 -3 -6 -2 -10 4 -10 5 0 12 6 14 13 4 9 6 8 6 -2 1
-11 4 -11 19 0 15 12 16 12 6 -1 -14 -19 -14 -51 -1 -43 6 4 8 0 4 -10 -3 -9
-1 -19 5 -23 6 -4 8 -3 4 4 -3 6 -2 13 4 17 6 4 7 11 4 17 -4 6 -3 8 2 5 5 -3
9 -27 7 -54 -2 -44 -1 -47 13 -28 15 20 15 20 12 0 -6 -32 -19 -49 -28 -35 -4
7 -13 9 -19 6 -6 -4 -8 -12 -5 -18 5 -8 1 -9 -10 -5 -9 4 -15 3 -12 -1 3 -5
24 -8 48 -7 41 1 43 3 42 31 0 16 4 32 9 36 17 11 37 -3 37 -27 0 -34 11 -59
20 -45 4 6 24 13 46 15 23 3 31 2 19 -3 -25 -9 -31 -32 -6 -25 11 3 21 -2 24
-11 4 -9 2 -16 -2 -16 -5 0 -12 6 -14 13 -4 9 -6 9 -6 0 -1 -7 -7 -10 -15 -7
-23 9 -27 -12 -6 -31 11 -10 17 -22 13 -28 -3 -6 -1 -7 5 -3 7 4 12 3 12 -2 0
-6 7 -13 16 -16 8 -3 12 -2 9 4 -8 13 16 12 35 -1 13 -9 12 -10 -2 -5 -23 7
-23 3 7 -43 25 -41 45 -59 45 -42 0 6 8 8 18 5 13 -5 14 -4 3 4 -8 6 -11 17
-8 26 5 12 12 14 30 7 14 -6 29 -6 38 0 16 10 35 12 26 2 -4 -3 3 -17 15 -30
21 -22 21 -24 4 -41 -9 -9 -16 -12 -15 -7 5 28 -2 47 -15 42 -10 -4 -13 -1 -9
9 4 10 0 12 -11 8 -9 -3 -13 -10 -10 -15 3 -5 -3 -6 -13 -2 -10 3 -15 3 -11
-2 4 -4 2 -15 -5 -23 -10 -13 -9 -14 3 -7 24 15 59 14 53 -2 -7 -18 26 -29 47
-15 18 11 40 -1 40 -22 0 -6 -5 -4 -10 4 -8 12 -10 12 -11 -5 l0 -20 -9 20
c-7 16 -9 17 -9 3 -1 -9 7 -21 16 -27 12 -6 14 -13 7 -23 -6 -7 -11 -24 -11
-38 -1 -14 1 -19 4 -12 4 10 8 10 18 2 10 -9 16 -6 25 10 6 12 16 18 23 14 7
-4 9 -4 5 1 -4 4 -2 15 5 23 9 13 9 14 0 8 -7 -4 -13 -2 -13 4 0 13 58 4 79
-13 12 -10 14 -9 8 7 -6 16 -5 17 8 6 17 -14 21 -35 4 -25 -6 4 -13 -2 -15
-12 -4 -15 -12 -18 -35 -15 -29 4 -40 -10 -17 -24 7 -4 8 -3 4 4 -4 8 0 12 11
11 22 -1 63 -17 45 -18 -7 -1 -10 -5 -7 -11 3 -6 -1 -7 -9 -4 -9 3 -13 11 -9
18 4 6 -1 5 -10 -3 -13 -10 -14 -18 -6 -32 12 -23 21 -25 13 -4 -7 17 11 20
22 4 4 -8 12 -2 21 15 7 14 18 26 22 26 5 0 7 8 4 19 -3 10 0 22 5 25 6 3 9
-2 8 -11 -2 -10 1 -28 5 -41 5 -14 5 -21 0 -18 -5 4 -11 3 -14 -1 -2 -5 -2 -2
-1 5 5 18 -4 15 -15 -7 -8 -15 -7 -18 9 -17 11 0 19 -3 18 -9 -2 -5 -8 -9 -15
-7 -7 2 -13 -3 -13 -9 0 -7 3 -9 6 -6 4 3 15 2 24 -3 16 -8 17 -4 16 35 -1 35
1 42 11 33 10 -8 13 -7 13 3 0 8 5 6 12 -6 16 -29 18 -31 27 -16 7 11 13 11
27 1 16 -9 16 -11 2 -6 -21 6 -34 -10 -14 -17 15 -6 16 -52 3 -62 -4 -3 -5 -2
-2 1 8 12 -16 45 -28 37 -7 -4 -7 0 2 10 9 11 10 17 2 17 -6 0 -14 0 -18 0 -5
0 -8 -3 -8 -7 -1 -5 -7 -19 -14 -32 -13 -23 -12 -24 13 -19 20 4 24 2 16 -7
-8 -10 0 -17 31 -29 40 -16 41 -18 24 -36 -16 -17 -51 -18 -40 0 4 7 -44 25
-50 18 -1 -2 -5 -14 -9 -28 -3 -14 -3 -19 0 -12 3 6 11 9 17 5 6 -4 8 0 4 10
-4 11 -2 14 8 11 8 -3 11 -12 9 -19 -4 -10 1 -12 17 -8 17 5 20 3 14 -7 -5 -8
-4 -11 3 -6 16 10 27 -15 11 -26 -10 -7 -9 -8 6 -3 22 8 26 8 73 -1 17 -3 32
-10 32 -15 0 -5 7 -9 16 -9 8 0 13 -4 10 -9 -8 -13 18 -21 35 -10 11 7 10 9
-5 9 -12 0 -16 5 -12 16 3 9 6 18 6 20 0 3 5 2 10 -1 6 -4 8 -11 4 -16 -3 -5
0 -8 8 -7 7 2 12 -3 10 -10 -1 -8 2 -11 9 -6 9 5 10 2 6 -10 -4 -10 -7 -20 -7
-23 0 -3 -6 -1 -13 5 -8 7 -18 7 -27 2 -12 -7 -7 -11 18 -16 18 -4 35 -11 39
-17 3 -6 1 -7 -5 -3 -7 4 -12 2 -12 -4 0 -7 8 -14 18 -17 14 -3 18 -11 14 -30
-3 -18 -7 -21 -13 -11 -7 10 -9 10 -9 -3 0 -19 41 -40 70 -34 11 2 18 0 15 -4
-3 -5 2 -11 10 -15 8 -3 15 -12 15 -21 0 -8 5 -15 11 -15 6 0 8 7 4 18 -5 14
-4 15 7 4 11 -11 10 -16 -4 -26 -10 -7 -14 -16 -10 -20 4 -4 1 -6 -7 -4 -7 2
-16 -3 -18 -10 -3 -9 1 -12 13 -10 12 2 20 -6 25 -24 8 -29 1 -36 -18 -17 -8
8 -13 8 -18 0 -3 -6 -3 -11 2 -10 15 2 53 -13 53 -22 0 -12 -17 -11 -25 1 -9
15 -25 12 -25 -5 0 -14 12 -20 33 -16 5 1 6 -3 3 -8 -3 -5 1 -14 8 -21 8 -6
13 -20 11 -31 -2 -10 2 -19 8 -19 8 0 9 -3 1 -8 -6 -4 -14 -16 -17 -26 -6 -15
-5 -17 6 -8 10 9 14 8 14 -3 0 -7 -3 -14 -6 -13 -3 0 -15 0 -26 -2 l-20 -1 20
-9 c11 -5 16 -9 10 -9 -5 -1 -3 -6 5 -11 11 -7 11 -10 2 -10 -7 0 -10 -5 -7
-10 4 -6 10 -8 15 -5 12 8 6 -23 -8 -37 -14 -14 -16 -52 -3 -44 10 7 8 -45 -3
-63 -4 -6 -4 -11 1 -10 22 4 25 -2 7 -15 -16 -12 -17 -17 -6 -28 11 -11 12
-10 7 5 -4 9 -3 17 3 17 6 0 9 -8 7 -17 -1 -11 -9 -17 -21 -15 -16 2 -15 -1 6
-18 14 -12 19 -18 11 -14 -11 5 -13 2 -9 -14 4 -12 2 -22 -4 -22 -5 0 -6 -5
-3 -10 4 -6 10 -8 15 -5 4 3 7 -3 5 -12 -2 -10 -4 -18 -5 -18 -5 0 -6 -56 -1
-60 4 -2 5 -23 4 -47 -2 -24 -5 -59 -6 -78 -1 -19 1 -45 5 -57 4 -13 3 -25 -3
-29 -6 -3 -9 -19 -7 -35 3 -17 0 -29 -6 -29 -7 0 -8 -3 -1 -8 6 -4 10 -38 10
-77 -1 -38 3 -78 7 -87 5 -10 3 -20 -4 -24 -7 -5 -8 -3 -3 6 6 9 4 11 -5 5
-10 -6 -8 -13 11 -28 16 -13 18 -18 7 -14 -12 4 -18 1 -18 -9 0 -9 5 -12 13
-8 8 5 7 2 -2 -10 -12 -14 -12 -19 -1 -29 10 -10 11 -9 5 2 -5 9 -4 12 3 8 5
-4 8 -16 5 -27 -3 -11 -9 -18 -13 -15 -9 6 -8 -15 2 -31 4 -6 6 -28 4 -48 -2
-22 2 -42 10 -51 8 -7 14 -19 14 -25 0 -6 4 -8 10 -5 6 3 7 -1 4 -10 -5 -12
-9 -13 -20 -4 -12 10 -13 9 -8 -5 4 -11 13 -15 25 -11 14 5 19 1 19 -14 0 -30
25 -26 26 4 1 14 -1 25 -5 25 -4 0 -6 14 -5 30 1 17 -2 30 -6 30 -4 0 -6 16
-3 36 3 25 1 34 -6 30 -7 -5 -9 -1 -5 8 3 9 3 24 -1 34 -5 9 -8 28 -8 42 1 57
14 298 18 330 2 19 7 87 10 150 3 63 10 192 15 285 14 238 36 641 65 1180 14
253 29 541 35 640 19 341 60 1091 80 1470 11 209 29 544 40 745 11 201 24 455
30 565 22 412 41 768 55 1030 8 149 33 614 55 1035 22 421 42 788 45 815 45
401 313 735 685 853 88 28 184 40 385 47 168 6 531 20 795 30 495 20 1458 59
1973 80 334 14 622 25 640 25 l32 0 3 858 c1 471 6 911 11 977 5 73 8 -345 7
-1062 0 -958 2 -1185 13 -1195 10 -11 12 -4 10 38 -1 27 0 54 2 60 7 11 8 223
11 1209 1 413 4 725 8 695 6 -53 7 -52 8 28 1 53 -2 81 -8 77 -5 -3 -10 -2
-10 4 0 5 5 11 11 13 7 2 8 419 1 1433 -5 787 -7 1447 -5 1468 9 64 -3 41 -29
-60z m-11 -2275 c-3 -8 -6 -5 -6 6 -1 11 2 17 5 13 3 -3 4 -12 1 -19z m0 -190
c-3 -8 -6 -5 -6 6 -1 11 2 17 5 13 3 -3 4 -12 1 -19z m0 -85 c-3 -10 -5 -4 -5
12 0 17 2 24 5 18 2 -7 2 -21 0 -30z m40 -145 c-2 -18 -4 -6 -4 27 0 33 2 48
4 33 2 -15 2 -42 0 -60z m-4947 -493 c13 -14 21 -25 18 -25 -2 0 -15 11 -28
25 -13 14 -21 25 -18 25 2 0 15 -11 28 -25z m249 10 c5 -3 12 -1 16 4 3 6 12
8 20 5 29 -12 3 -24 -45 -21 -48 2 -57 6 -44 20 6 6 38 2 53 -8z m-271 -30
c-3 -3 -9 2 -12 12 -6 14 -5 15 5 6 7 -7 10 -15 7 -18z m-378 -11 c0 -8 -5
-12 -10 -9 -6 4 -8 11 -5 16 9 14 15 11 15 -7z m215 -5 c-3 -4 -12 -6 -20 -2
-11 4 -13 1 -9 -11 5 -12 2 -15 -9 -10 -9 3 -15 13 -14 23 1 13 8 16 29 13 15
-2 25 -8 23 -13z m103 -5 c0 -14 -3 -22 -7 -17 -3 6 -13 13 -21 16 -12 4 -11
6 3 6 9 1 17 6 17 11 0 6 2 10 4 10 2 0 4 -12 4 -26z m48 -12 c-4 -3 -14 2
-24 12 -16 18 -16 18 6 6 13 -6 21 -14 18 -18z m-481 8 c3 -5 12 -7 19 -4 8 3
17 1 20 -4 3 -6 -1 -12 -9 -16 -8 -3 -17 -1 -21 5 -7 12 -56 8 -66 -6 -5 -6
-8 -3 -8 7 0 9 10 18 23 21 12 2 25 5 29 6 4 0 9 -3 13 -9z m-75 -17 c0 -13
-3 -14 -12 -5 -9 9 -14 8 -22 -4 -10 -13 -12 -12 -13 5 -1 16 4 21 23 21 16 0
24 -6 24 -17z m423 -4 c-4 -15 -8 -17 -14 -8 -6 11 4 28 18 29 0 0 -1 -9 -4
-21z m-813 -14 c9 -5 15 -4 18 4 3 9 7 9 18 0 8 -6 14 -7 14 -2 0 5 14 10 30
10 17 0 30 -4 30 -9 0 -5 -4 -7 -9 -3 -5 3 -13 0 -16 -6 -4 -5 -13 -8 -21 -5
-7 3 -20 -1 -28 -9 -8 -8 -20 -15 -27 -15 -8 0 -8 -4 -2 -12 17 -22 22 -58 8
-58 -17 0 -27 27 -12 34 9 3 8 7 -2 14 -7 5 -11 14 -8 18 3 5 -1 15 -9 22 -12
11 -14 10 -15 -5 0 -16 -1 -16 -9 2 -5 11 -9 23 -9 26 -1 8 32 5 49 -6z m625
-15 c-2 -29 -10 -33 -13 -5 -1 14 2 25 6 25 5 0 8 -9 7 -20z m-1348 -14 c-9
-22 5 -28 20 -8 7 9 12 13 11 7 -3 -11 48 -65 55 -58 3 2 8 0 11 -6 4 -6 -2
-8 -16 -6 -13 3 -24 9 -26 14 -2 5 -12 2 -22 -6 -10 -9 -16 -21 -13 -26 3 -5
-4 -4 -16 3 -12 6 -30 9 -40 5 -11 -3 -24 2 -32 12 -13 16 -12 17 2 5 12 -9
24 -10 43 -2 18 6 25 6 21 0 -9 -14 9 -12 23 2 22 22 15 38 -14 28 -34 -13
-37 -13 -31 5 7 16 -9 30 -16 15 -3 -6 -4 -5 -3 2 2 7 10 12 20 10 9 -2 16 2
16 8 0 5 3 10 6 10 3 0 4 -6 1 -14z m171 -8 c-6 -17 -38 -23 -38 -8 0 6 5 8
10 5 6 -3 10 -1 10 4 0 6 5 11 11 11 6 0 9 -6 7 -12z m91 -4 c3 -2 -4 -11 -15
-20 -17 -14 -18 -15 -1 -10 10 3 23 6 28 6 6 0 7 5 3 12 -4 7 -3 8 5 4 14 -9
5 -26 -15 -26 -8 0 -12 -5 -9 -10 10 -16 -18 -7 -33 10 -8 8 -11 9 -7 3 4 -9
1 -11 -9 -7 -9 3 -16 1 -16 -5 0 -6 -7 -8 -15 -5 -8 4 -15 2 -15 -4 0 -5 -9
-12 -20 -15 -23 -6 -27 11 -5 19 8 4 12 10 9 15 -5 9 15 13 46 10 13 -2 13 -1
0 9 -13 9 -13 11 0 20 13 9 58 5 69 -6z m895 -5 c-8 -14 -24 -10 -24 6 0 9 6
12 15 9 8 -4 12 -10 9 -15z m-1077 4 c-4 -3 1 -12 11 -19 15 -12 15 -13 1 -14
-9 0 -22 6 -28 13 -11 14 -5 27 12 27 6 0 7 -3 4 -7z m38 -3 c-3 -5 -1 -10 4
-10 6 0 11 -8 11 -17 -1 -17 -2 -16 -15 1 -13 17 -12 36 1 36 3 0 2 -4 -1 -10z
m425 -16 c0 -12 -4 -12 -19 -2 -11 7 -18 15 -15 20 7 11 34 -3 34 -18z m547
10 c-3 -3 -12 -4 -19 -1 -8 3 -5 6 6 6 11 1 17 -2 13 -5z m-497 -41 c32 -12
41 -42 13 -39 -10 0 -18 -5 -18 -11 0 -7 -4 -13 -10 -12 -5 1 -9 5 -7 10 1 5
-5 9 -15 9 -9 0 -13 3 -9 7 4 4 13 8 19 8 7 0 13 5 14 10 0 6 -3 9 -8 8 -5 -2
-9 1 -9 7 0 5 -6 8 -12 6 -7 -1 -10 -1 -5 1 4 3 8 12 8 21 1 14 2 14 5 2 3 -9
18 -21 34 -27z m300 17 c0 -10 -38 -1 -45 10 -2 4 7 5 20 2 14 -2 25 -8 25
-12z m-193 -12 c-3 -8 -6 -5 -6 6 -1 11 2 17 5 13 3 -3 4 -12 1 -19z m-361
-22 c-18 -15 -26 -28 -21 -36 5 -9 4 -11 -3 -6 -20 12 -14 30 16 48 39 23 42
21 8 -6z m174 -18 c0 -6 -7 -5 -15 2 -8 7 -15 17 -15 22 0 6 7 5 15 -2 8 -7
15 -17 15 -22z m-749 9 c-6 -8 -8 -17 -4 -20 3 -4 1 -7 -5 -7 -16 0 -15 27 1
33 19 8 20 8 8 -6z m527 -12 c-3 -3 -9 2 -12 12 -6 14 -5 15 5 6 7 -7 10 -15
7 -18z m96 16 c7 -10 -18 -34 -27 -25 -7 8 3 34 13 34 5 0 11 -4 14 -9z m-478
-34 c1 -10 -4 -14 -17 -12 -11 2 -17 0 -15 -4 3 -4 -1 -17 -9 -27 -11 -13 -13
-14 -10 -3 4 9 0 16 -8 16 -9 0 -12 -7 -9 -21 5 -18 4 -18 -10 -5 -9 7 -13 19
-10 24 3 6 -2 4 -12 -4 -10 -9 -16 -24 -13 -37 2 -15 -1 -21 -12 -20 -17 1
-22 -22 -8 -41 5 -7 4 -19 -2 -30 -10 -16 -10 -15 -8 6 1 13 -4 26 -12 29 -10
3 -12 -1 -8 -17 3 -11 1 -19 -4 -15 -15 9 -10 32 9 43 9 6 13 11 8 11 -5 0 -1
9 9 20 11 12 16 29 13 45 -3 14 -1 28 3 31 5 3 9 0 9 -7 0 -8 4 -8 13 -1 7 6
24 8 37 5 17 -5 21 -3 15 7 -6 10 -3 12 13 8 12 -4 22 -2 22 3 0 5 -4 9 -10 9
-5 0 -10 5 -10 10 0 17 33 -5 36 -23z m263 26 c-1 -5 0 -10 1 -13 7 -19 7 -39
-1 -34 -5 3 -7 9 -4 14 3 4 -2 13 -10 20 -10 9 -15 9 -15 1 0 -6 -9 -11 -20
-11 -11 0 -20 5 -20 11 0 5 4 8 9 4 5 -3 12 -1 16 5 7 11 46 14 44 3z m78 -35
c-3 -7 -5 -2 -5 12 0 14 2 19 5 13 2 -7 2 -19 0 -25z m241 7 c-3 -3 -9 2 -12
12 -6 14 -5 15 5 6 7 -7 10 -15 7 -18z m344 18 c-6 -2 -9 -10 -6 -15 4 -7 2
-8 -5 -4 -13 9 -5 26 12 25 9 0 8 -2 -1 -6z m-758 -22 c-2 -2 0 -9 6 -15 5 -7
5 -18 0 -26 -7 -11 -10 -8 -15 13 -4 15 -10 25 -14 23 -4 -3 -13 -1 -20 4 -9
5 -3 7 17 7 17 -1 29 -4 26 -6z m240 -33 c3 -15 2 -18 -6 -10 -6 6 -17 8 -26
5 -10 -4 -13 -2 -8 5 4 7 2 12 -4 12 -6 0 -9 4 -6 9 10 15 44 0 50 -21z m66
28 c0 -3 -4 -8 -10 -11 -5 -3 -10 -1 -10 4 0 6 5 11 10 11 6 0 10 -2 10 -4z
m65 -6 c3 -6 -1 -7 -9 -4 -18 7 -21 14 -7 14 6 0 13 -4 16 -10z m-330 -30 c-3
-5 -12 -10 -18 -10 -7 0 -6 4 3 10 19 12 23 12 15 0z m-289 -47 c-3 -7 0 -13
6 -13 6 0 8 -3 4 -7 -11 -11 -36 26 -36 51 1 21 1 21 16 1 8 -11 12 -25 10
-32z m64 27 c-6 -11 -13 -20 -16 -20 -2 0 0 9 6 20 6 11 13 20 16 20 2 0 0 -9
-6 -20z m115 10 c3 -5 1 -10 -4 -10 -6 0 -11 5 -11 10 0 6 2 10 4 10 3 0 8 -4
11 -10z m-75 -32 c0 -4 -4 -8 -9 -8 -6 0 -12 4 -15 8 -3 5 1 9 9 9 8 0 15 -4
15 -9z m157 6 c-3 -3 -12 -4 -19 -1 -8 3 -5 6 6 6 11 1 17 -2 13 -5z m-38 -17
c8 -10 7 -14 -2 -14 -8 0 -14 6 -14 14 0 7 1 13 2 13 2 0 8 -6 14 -13z m-238
-40 c-7 -7 -7 -15 2 -26 11 -14 10 -14 -6 -2 -12 9 -14 17 -7 26 5 6 6 16 2
20 -4 5 -1 5 6 0 10 -5 11 -10 3 -18z m179 -3 c0 -2 -7 -4 -15 -4 -8 0 -15 4
-15 10 0 5 7 7 15 4 8 -4 15 -8 15 -10z m50 6 c0 -5 -5 -10 -11 -10 -5 0 -7 5
-4 10 3 6 8 10 11 10 2 0 4 -4 4 -10z m-83 -25 c5 -4 2 -5 -6 0 -11 6 -13 4
-8 -8 3 -10 2 -17 -4 -17 -6 0 -7 -5 -3 -12 4 -7 3 -8 -4 -4 -6 4 -8 14 -5 23
4 11 3 14 -5 9 -8 -4 -10 -2 -6 7 6 16 28 17 41 2z m146 1 c9 1 15 -1 12 -6
-8 -13 -38 -5 -43 11 -2 9 -1 10 5 3 4 -6 16 -10 26 -8z m-238 -14 c-3 -3 -11
0 -18 7 -9 10 -8 11 6 5 10 -3 15 -9 12 -12z m495 -7 c14 -19 14 -19 -2 -6
-10 7 -18 18 -18 24 0 6 1 8 3 6 1 -2 9 -13 17 -24z m-623 -57 c-2 -13 -4 -5
-4 17 -1 22 1 32 4 23 2 -10 2 -28 0 -40z m116 15 c-3 -7 -6 -13 -8 -13 -2 0
-5 6 -8 13 -3 8 1 14 8 14 7 0 11 -6 8 -14z m-56 -8 c0 -8 -4 -12 -9 -9 -5 3
-6 10 -3 15 9 13 12 11 12 -6z m30 -71 c-3 -3 -12 -4 -19 -1 -8 3 -5 6 6 6 11
1 17 -2 13 -5z m256 -46 c-6 -11 -31 -10 -37 1 -3 5 5 8 18 7 13 0 22 -4 19
-8z m-289 -13 c-4 -8 -10 -12 -15 -9 -11 6 -2 24 11 24 5 0 7 -7 4 -15z m-50
-97 c-3 -4 -9 -8 -15 -8 -5 0 -9 4 -9 8 0 5 7 9 15 9 8 0 12 -4 9 -9z m-7 -33
c0 -8 -4 -12 -9 -9 -5 3 -6 10 -3 15 9 13 12 11 12 -6z m-42 -395 c3 -5 1 -10
-4 -10 -6 0 -11 5 -11 10 0 6 2 10 4 10 3 0 8 -4 11 -10z m-3902 -114 c62 -22
104 -62 137 -129 26 -53 31 -75 31 -137 0 -87 -16 -139 -66 -214 -38 -58 -115
-116 -179 -136 -48 -15 -151 -8 -191 13 -89 46 -146 143 -153 259 -5 91 11
147 64 219 83 114 237 168 357 125z m-821 -38 c22 -6 62 -31 88 -55 199 -179
43 -562 -229 -563 -80 0 -137 25 -185 82 -49 57 -68 102 -74 176 -4 58 -2 70
29 130 19 37 37 72 42 77 4 6 24 31 44 58 70 92 176 128 285 95z m1794 -45
c19 -20 23 -22 18 -7 -5 13 -4 16 4 9 14 -13 27 -65 16 -65 -5 0 -7 -27 -6
-60 3 -40 0 -60 -8 -60 -6 0 -8 -4 -5 -10 3 -5 -1 -10 -10 -10 -10 0 -13 -5
-9 -12 5 -8 2 -9 -9 -5 -10 4 -16 2 -14 -6 1 -7 -3 -11 -10 -10 -6 1 -16 -4
-23 -12 -9 -11 -17 -12 -31 -4 -10 5 -19 7 -19 3 0 -4 -9 1 -21 12 -12 10 -24
18 -27 16 -5 -2 -10 13 -14 50 -1 9 -6 14 -12 11 -5 -4 -7 1 -3 10 3 9 2 19
-4 22 -5 4 -8 3 -7 -2 2 -4 -1 -10 -7 -13 -5 -3 -11 7 -13 22 -3 22 2 30 22
40 25 11 30 19 27 46 -1 6 10 17 24 22 14 5 25 14 25 19 0 5 19 12 43 14 23 2
43 4 45 5 2 1 14 -10 28 -25z m-139 -2384 c261 -88 445 -297 503 -572 42 -204
34 -351 -31 -557 -112 -352 -418 -620 -759 -664 -284 -38 -540 77 -713 320
-82 115 -147 333 -147 493 0 228 84 472 228 660 134 176 369 319 575 350 102
15 248 3 344 -30z m2748 -2908 c3 -5 1 -12 -5 -16 -5 -3 -10 1 -10 9 0 18 6
21 15 7z m-18 -205 c-3 -8 -1 -17 6 -19 7 -2 10 -7 7 -10 -11 -12 -31 10 -24
26 3 9 8 17 11 17 3 0 3 -6 0 -14z m27 -60 c-6 -17 -34 -30 -34 -16 0 5 8 14
18 19 22 13 22 13 16 -3z m-2388 -63 c24 -24 26 -31 20 -84 -3 -33 -10 -68
-16 -78 -5 -11 -10 -27 -10 -37 0 -25 -46 -81 -90 -110 -72 -48 -125 -56 -390
-59 -135 -1 -245 -4 -245 -4 0 -1 -21 -3 -48 -4 -26 -1 -47 0 -47 3 0 5 -355
5 -375 0 -5 -1 -14 -2 -19 -1 -14 3 -148 0 -176 -3 -14 -2 -28 2 -32 8 -5 8
-8 7 -8 -1 0 -7 -6 -10 -12 -8 -29 11 -168 12 -168 1 0 -8 -2 -8 -8 0 -4 6
-47 11 -107 12 -205 2 -249 11 -280 58 -14 21 -13 27 5 59 11 19 19 39 19 43
-3 20 2 33 11 27 6 -3 10 3 10 15 0 12 4 18 11 15 5 -4 18 1 27 12 26 28 66
60 58 46 -4 -7 -3 -13 3 -13 5 0 11 5 13 11 2 7 15 12 28 13 14 1 30 4 35 7 6
3 21 4 35 3 36 -3 153 -6 165 -4 11 2 45 1 87 -4 15 -2 25 1 22 5 -3 5 -1 9 5
9 5 0 11 -5 13 -12 3 -7 9 -8 19 -3 13 8 125 9 267 2 28 -1 52 0 52 3 0 3 21
4 48 2 26 -1 88 -2 137 -2 50 1 104 1 120 1 39 -1 80 0 130 3 22 2 46 -2 53
-7 6 -5 12 -6 12 -1 0 5 21 8 47 6 99 -5 153 -1 187 13 15 7 17 5 11 -6 -7
-11 -6 -12 6 -3 8 6 26 11 41 10 15 -1 30 4 33 12 3 7 15 12 27 11 22 -2 39 3
123 42 60 28 118 25 151 -8z m2368 -1 c3 -5 -1 -9 -9 -9 -8 0 -12 4 -9 9 3 4
7 8 9 8 2 0 6 -4 9 -8z m4 -97 c0 -30 -3 -57 -8 -60 -4 -3 -7 3 -5 12 4 25 -6
38 -16 22 -17 -28 -9 19 9 50 9 17 17 31 18 31 0 0 1 -25 2 -55z m2 -90 c0 -8
-4 -15 -10 -15 -5 0 -10 7 -10 15 0 8 5 15 10 15 6 0 10 -7 10 -15z m-13 -47
c-3 -8 -6 -5 -6 6 -1 11 2 17 5 13 3 -3 4 -12 1 -19z m40 -6 c10 -6 10 -12 -2
-28 -13 -16 -14 -16 -9 -1 5 13 2 16 -10 11 -12 -5 -15 -2 -10 10 7 18 13 19
31 8z m-59 -47 c-3 -3 -9 2 -12 12 -6 14 -5 15 5 6 7 -7 10 -15 7 -18z m59
-60 c0 -8 -4 -12 -9 -9 -4 3 -8 9 -8 15 0 5 4 9 8 9 5 0 9 -7 9 -15z m56 0
c-3 -9 -8 -14 -10 -11 -3 3 -2 9 2 15 9 16 15 13 8 -4z m-113 -89 c0 -3 -4 -8
-10 -11 -5 -3 -10 -1 -10 4 0 6 5 11 10 11 6 0 10 -2 10 -4z m154 -42 c3 -8 2
-12 -4 -9 -6 3 -10 10 -10 16 0 14 7 11 14 -7z m4 -32 c15 12 16 11 3 -4 -14
-19 -32 -15 -30 5 0 8 2 8 6 -1 4 -10 8 -10 21 0z m-12 -45 c4 -4 0 -7 -9 -7
-9 0 -18 4 -21 9 -7 10 20 9 30 -2z m47 -17 c-3 -12 -8 -19 -11 -16 -5 6 5 36
12 36 2 0 2 -9 -1 -20z m44 5 c0 -11 -4 -12 -14 -4 -7 6 -13 13 -13 15 0 2 6
4 13 4 8 0 14 -7 14 -15z m-70 -15 c-3 -10 0 -21 7 -23 6 -2 -2 -4 -18 -4 -19
0 -24 2 -15 8 13 8 6 13 -16 10 -5 -1 -1 6 9 14 27 21 39 19 33 -5z m-86 -53
c-25 -26 -28 -10 -3 21 9 12 19 16 21 11 2 -6 -6 -21 -18 -32z m151 15 c-7 -2
-10 -8 -7 -12 3 -5 0 -12 -6 -16 -7 -4 -9 -3 -5 4 3 6 2 13 -4 17 -5 3 -10 0
-10 -8 0 -8 -6 -17 -14 -20 -20 -8 -14 23 8 39 10 7 25 10 34 6 10 -4 12 -7 4
-10z m-117 -11 c-3 -6 -11 -11 -17 -11 -6 0 -6 6 2 15 14 17 26 13 15 -4z m35
5 c0 -3 -4 -8 -10 -11 -5 -3 -10 -1 -10 4 0 6 5 11 10 11 6 0 10 -2 10 -4z
m115 -15 c3 -5 2 -12 -3 -15 -5 -3 -9 1 -9 9 0 17 3 19 12 6z m70 -9 c-3 -3
-11 0 -18 7 -9 10 -8 11 6 5 10 -3 15 -9 12 -12z m-175 -6 c0 -8 -7 -16 -15
-20 -12 -4 -13 -2 -2 14 14 24 17 25 17 6z m88 -37 c3 -12 2 -12 -6 0 -7 9
-12 10 -16 2 -4 -6 -12 -9 -17 -5 -5 3 -7 9 -4 14 8 13 38 5 43 -11z m-98 -31
c3 -1 16 4 29 11 13 7 21 8 17 3 -3 -6 -19 -14 -34 -20 -26 -9 -28 -8 -29 17
-1 20 0 22 6 8 4 -10 9 -19 11 -19z m147 26 c-3 -3 -12 -4 -19 -1 -8 3 -5 6 6
6 11 1 17 -2 13 -5z m-81 -31 c0 -10 5 -17 12 -15 6 1 12 -3 12 -9 0 -5 5 -7
12 -3 7 4 8 3 4 -4 -5 -9 -13 -9 -26 -2 -21 11 -37 13 -27 3 8 -7 -11 -33 -24
-33 -5 0 -9 9 -9 21 0 11 5 17 10 14 6 -4 7 -11 4 -17 -4 -7 -2 -8 4 -4 6 4 9
13 5 21 -3 9 0 22 7 30 16 19 18 19 16 -2z m44 11 c0 -8 -19 -13 -24 -6 -3 5
1 9 9 9 8 0 15 -2 15 -3z m23 -49 c4 -8 3 -16 -1 -19 -4 -3 -9 4 -9 15 -2 23
3 25 10 4z m243 3 c5 4 5 3 1 -2 -12 -15 -34 -15 -34 0 0 9 4 11 12 4 7 -5 16
-6 21 -2z m-109 -18 c-26 -21 -53 -27 -42 -10 4 6 10 8 15 5 4 -3 13 2 20 10
7 8 17 15 23 15 5 0 -2 -9 -16 -20z m-363 1 c3 -5 -1 -11 -9 -14 -9 -4 -12 -1
-8 9 6 16 10 17 17 5z m409 -11 c3 -11 2 -22 -2 -24 -4 -3 -8 6 -9 20 -2 29 4
31 11 4z m-278 -36 c-29 -31 -35 -30 -35 4 0 26 3 28 29 24 l28 -4 -22 -24z
m-60 14 c5 4 5 1 1 -6 -6 -10 -11 -10 -22 -1 -8 6 -14 14 -14 16 0 3 6 0 13
-6 8 -6 18 -7 22 -3z m385 -19 c0 -5 -4 -9 -8 -9 -5 0 -9 7 -9 15 0 8 4 12 9
9 4 -3 8 -9 8 -15z m-98 -31 c-6 -6 -12 -6 -17 3 -5 8 -4 10 3 5 7 -4 12 0 13
11 0 12 2 13 6 5 3 -8 1 -18 -5 -24z m68 6 c0 -8 -19 -13 -24 -6 -3 5 1 9 9 9
8 0 15 -2 15 -3z m-43 -30 c-3 -16 0 -28 9 -31 18 -7 18 -20 0 -20 -8 0 -15 3
-14 6 2 18 -4 22 -16 12 -11 -9 -16 -9 -22 0 -4 8 -3 9 4 5 7 -4 12 -3 12 3 0
5 -6 12 -12 15 -7 3 -3 3 10 0 12 -3 22 -2 21 3 -3 16 1 33 7 33 4 0 4 -12 1
-26z m68 -14 c-11 -5 -16 -9 -12 -9 4 -1 3 -10 -3 -21 -9 -16 -8 -20 5 -20 9
0 13 -5 10 -10 -11 -18 -36 9 -26 28 6 11 4 20 -5 27 -11 8 -7 10 18 12 26 1
29 0 13 -7z m169 -32 c-5 -8 -1 -9 12 -4 14 5 16 4 8 -4 -6 -6 -19 -8 -28 -4
-14 5 -15 9 -4 15 18 12 20 11 12 -3z m-271 -15 c-7 -2 -13 -9 -13 -14 0 -4 6
-7 13 -5 6 1 8 1 4 -2 -4 -2 -2 -11 5 -19 14 -18 19 -41 9 -47 -4 -3 -8 5 -8
16 -1 11 -12 31 -23 43 -21 22 -16 33 15 33 6 0 4 -2 -2 -5z m-2118 -73 c178
-14 253 -47 296 -132 62 -122 15 -270 -106 -331 -75 -38 -106 -38 -1775 -35
l-1625 3 -63 22 c-123 42 -176 109 -176 223 0 78 25 132 81 179 83 69 15 65
1278 71 627 3 1327 6 1555 7 228 1 469 -2 535 -7z m2305 -9 c0 -5 -7 -12 -16
-15 -14 -5 -15 -4 -4 9 14 17 20 19 20 6z m75 -1 c3 -5 2 -10 -4 -10 -5 0 -13
5 -16 10 -3 6 -2 10 4 10 5 0 13 -4 16 -10z m-20 -28 c-3 -3 -11 0 -18 7 -9
10 -8 11 6 5 10 -3 15 -9 12 -12z m108 1 c-7 -2 -21 -2 -30 0 -10 3 -4 5 12 5
17 0 24 -2 18 -5z m145 -28 c-3 -3 -9 2 -12 12 -6 14 -5 15 5 6 7 -7 10 -15 7
-18z m-18 -30 c0 -2 -9 -9 -20 -15 -12 -6 -20 -7 -20 -1 0 5 8 12 18 14 9 3
18 5 20 6 1 0 2 -1 2 -4z m-100 -31 c0 -7 -5 -16 -10 -19 -6 -4 -8 -10 -5 -15
7 -11 -14 -24 -45 -27 -17 -3 -21 -1 -12 5 8 5 13 12 13 16 -3 22 1 27 18 21
22 -7 37 10 20 21 -8 5 -9 3 -4 -6 5 -8 3 -11 -6 -8 -8 3 -15 12 -17 20 -2 12
3 14 23 11 14 -3 25 -11 25 -19z m85 -4 c-3 -5 -12 -10 -18 -10 -7 0 -6 4 3
10 19 12 23 12 15 0z m26 -7 c-11 -5 -11 -7 0 -14 11 -7 10 -9 -3 -9 -18 0
-23 11 -11 23 3 4 11 7 17 6 6 0 5 -3 -3 -6z m89 -18 c0 -12 -19 -12 -23 0 -4
9 -1 12 9 8 7 -3 14 -7 14 -8z m-53 -17 c-2 -7 -10 -12 -16 -10 -6 1 -11 -4
-11 -10 0 -14 55 -16 68 -3 4 5 1 5 -5 1 -7 -4 -13 -2 -13 3 0 20 19 11 36
-18 12 -21 22 -27 38 -23 11 3 19 2 16 -1 -10 -11 -60 -16 -66 -6 -3 5 -10 7
-15 3 -5 -3 -8 0 -7 6 5 22 -34 19 -53 -3 -10 -12 -18 -18 -19 -13 0 5 -6 4
-13 -2 -8 -7 -18 -6 -32 5 -18 14 -18 15 -1 9 16 -5 17 -2 12 21 -5 23 -4 25
4 10 6 -9 16 -15 21 -11 5 3 8 2 7 -3 -2 -4 2 -9 7 -10 6 -1 9 7 7 18 -4 21
14 49 30 49 5 0 8 -6 5 -12z m-216 -51 c-10 -9 -11 -8 -5 6 3 10 9 15 12 12 3
-3 0 -11 -7 -18z m370 -14 c13 -16 12 -17 -3 -4 -17 13 -22 21 -14 21 2 0 10
-8 17 -17z m-21 -25 c0 -5 4 -7 9 -4 5 3 12 -1 15 -9 4 -13 2 -14 -14 -5 -11
6 -24 9 -29 6 -4 -3 -8 1 -8 8 0 7 6 13 14 13 7 0 13 -4 13 -9z m-31 -27 c11
-7 10 -11 -7 -20 -22 -12 -39 0 -27 19 8 12 16 12 34 1z m41 -5 c0 -3 -4 -8
-10 -11 -5 -3 -10 -1 -10 4 0 6 5 11 10 11 6 0 10 -2 10 -4z m7 -31 c0 -8 -4
-15 -9 -15 -10 0 -11 14 -1 23 9 10 10 9 10 -8z m54 -55 c5 0 9 -6 9 -12 -1
-7 -9 -2 -20 11 -11 12 -17 28 -12 35 4 7 8 3 10 -11 2 -13 8 -23 13 -23z m80
-59 c6 10 9 8 9 -9 0 -31 -24 -23 -27 9 -1 17 0 19 4 5 4 -15 7 -16 14 -5z
m-54 -6 c0 -8 -4 -12 -9 -9 -4 3 -8 9 -8 15 0 5 4 9 8 9 5 0 9 -7 9 -15z m139
-12 c-4 -4 -12 -1 -19 7 -9 10 -9 11 1 6 7 -4 12 -2 13 6 0 11 2 11 6 0 3 -7
2 -16 -1 -19z m-41 7 c-3 -5 -10 -10 -16 -10 -5 0 -9 5 -9 10 0 6 7 10 16 10
8 0 12 -4 9 -10z m9 -47 c6 -14 4 -14 -11 -2 -15 12 -16 12 -10 -5 5 -13 3
-17 -7 -13 -8 3 -17 1 -20 -6 -2 -7 -5 -5 -5 4 -1 9 6 20 15 23 8 3 12 10 9
16 -3 5 0 7 9 4 8 -3 17 -13 20 -21z m53 -15 c-3 -8 -6 -5 -6 6 -1 11 2 17 5
13 3 -3 4 -12 1 -19z m-26 -82 c8 5 9 3 4 -6 -6 -10 -4 -12 7 -7 10 3 15 1 14
-8 -4 -26 -12 -25 -42 7 -16 18 -21 26 -12 19 9 -7 23 -9 29 -5z m50 -19 c-10
-9 -11 -8 -5 6 3 10 9 15 12 12 3 -3 0 -11 -7 -18z m81 -11 c7 4 8 2 4 -4 -4
-6 -13 -9 -21 -6 -8 4 -12 11 -8 17 5 8 8 7 11 -1 2 -7 9 -9 14 -6z m53 4 c-3
-5 -1 -10 6 -10 7 0 10 -3 6 -6 -9 -9 -28 6 -22 17 4 5 8 9 11 9 3 0 2 -4 -1
-10z m-89 -15 c17 -16 14 -18 -10 -9 -9 3 -16 10 -16 15 0 13 9 11 26 -6z m57
-34 c3 -13 1 -18 -9 -14 -7 2 -10 11 -7 19 7 19 10 18 16 -5z m97 6 c0 -8 -7
-14 -15 -14 -25 0 -17 17 13 26 1 1 2 -5 2 -12z m-140 -7 c9 -6 10 -10 3 -10
-7 0 -10 -10 -7 -25 2 -14 1 -25 -4 -25 -17 0 -21 12 -12 35 6 16 5 25 -3 29
-7 2 -7 5 -2 5 6 0 17 -4 25 -9z m80 -4 c0 -3 -4 -8 -10 -11 -5 -3 -10 -1 -10
4 0 6 5 11 10 11 6 0 10 -2 10 -4z m156 -91 c-3 -8 -12 -12 -20 -9 -8 3 -12
12 -9 21 5 12 7 12 14 1 7 -10 9 -8 10 7 0 11 3 14 6 7 3 -7 2 -19 -1 -27z
m-45 12 c-6 -8 -10 -16 -8 -18 1 -2 0 -3 -2 -1 -12 7 -7 32 6 32 12 0 13 -3 4
-13z m194 -38 c-4 -5 1 -9 9 -9 9 0 16 -5 16 -11 0 -5 5 -7 10 -4 6 3 10 1 10
-4 0 -16 -19 -13 -38 5 -18 18 -26 48 -11 38 5 -3 7 -10 4 -15z m-99 0 c-14
-9 -16 -13 -5 -20 7 -4 10 -11 6 -16 -5 -4 -12 -1 -16 6 -5 7 -14 11 -20 7 -7
-5 -9 -1 -5 8 3 9 10 14 14 11 5 -3 11 -1 15 5 3 5 12 10 18 10 7 0 4 -5 -7
-11z m75 -42 c-10 -9 -11 -8 -5 6 3 10 9 15 12 12 3 -3 0 -11 -7 -18z m-156
-19 c-2 -25 -21 -43 -30 -29 -9 16 3 48 18 48 8 0 13 -9 12 -19z m223 -20 c-2
-7 2 -12 8 -11 6 1 11 -5 11 -13 0 -12 -4 -11 -18 2 -10 9 -16 21 -13 25 8 13
14 11 12 -3z m146 -109 c-8 -14 -21 -11 -21 5 0 8 6 12 14 9 7 -3 10 -9 7 -14z
m-14 -51 c0 -16 -3 -19 -11 -11 -6 6 -8 16 -5 22 11 17 16 13 16 -11z m-35
-18 c-3 -5 -10 -10 -16 -10 -5 0 -9 5 -9 10 0 6 7 10 16 10 8 0 12 -4 9 -10z
m80 -44 c3 -21 1 -36 -6 -36 -5 0 -8 4 -5 9 3 5 -5 12 -18 15 -17 4 -24 13
-23 26 1 11 6 18 12 16 5 -2 9 -9 8 -15 -2 -6 2 -11 8 -11 6 0 9 6 6 14 -5 13
2 30 10 22 2 -2 6 -20 8 -40z m105 -4 c0 -3 -11 -15 -25 -27 -20 -20 -22 -24
-8 -29 9 -4 21 1 29 11 7 10 14 15 15 11 1 -5 2 -11 3 -15 1 -5 5 -14 10 -21
7 -11 4 -12 -13 -3 -19 11 -21 9 -21 -16 0 -21 -3 -24 -9 -13 -6 8 -7 18 -4
24 3 5 1 6 -4 3 -13 -8 -30 12 -30 35 0 10 6 14 15 10 10 -3 13 -1 8 6 -4 7
-2 12 4 12 6 0 9 4 6 8 -3 5 1 9 9 9 8 0 15 -2 15 -5z m-210 -22 c0 -17 -2
-19 -14 -8 -14 13 -12 28 5 28 5 0 9 -9 9 -20z m143 -1 c-4 -15 -8 -17 -14 -8
-6 11 4 28 18 29 0 0 -1 -9 -4 -21z m-73 -4 c0 -9 -6 -12 -17 -8 -11 4 -14 3
-9 -5 4 -7 3 -12 -3 -12 -5 0 -9 9 -8 20 1 23 37 28 37 5z m49 -38 c0 -9 -2
-8 -6 1 -2 6 -10 9 -15 6 -7 -4 -8 -2 -4 5 9 13 26 5 25 -12z m129 -81 c-7 -8
-17 -12 -22 -9 -4 3 -2 9 5 14 22 13 31 11 17 -5z m-18 -36 c7 -14 7 -20 0
-20 -5 0 -10 6 -10 14 0 8 -6 17 -12 19 -10 4 -10 6 -1 6 7 1 17 -8 23 -19z
m115 -129 c3 -5 2 -12 -3 -15 -5 -3 -9 1 -9 9 0 17 3 19 12 6z m-5745 -2056
c293 -6 418 -17 473 -40 90 -37 143 -127 134 -226 -6 -67 -25 -106 -79 -165
-78 -84 -99 -86 -883 -64 -503 14 -562 23 -632 103 -99 113 -55 298 89 373 69
36 69 36 898 19z"/>
<path d="M10287 22819 c7 -7 15 -10 18 -7 3 3 -2 9 -12 12 -14 6 -15 5 -6 -5z"/>
<path d="M9780 22790 c0 -5 5 -10 10 -10 6 0 10 5 10 10 0 6 -4 10 -10 10 -5
0 -10 -4 -10 -10z"/>
<path d="M6141 21511 c-8 -5 -9 -11 -3 -15 5 -3 12 1 16 9 6 17 6 18 -13 6z"/>
<path d="M4556 15712 c-11 -19 17 -53 34 -41 8 5 10 9 4 9 -6 0 -15 10 -21 22
-6 15 -12 18 -17 10z"/>
<path d="M10383 22899 c14 -8 22 -8 30 0 8 8 3 11 -18 11 -26 -1 -28 -2 -12
-11z"/>
<path d="M10198 22893 c7 -3 16 -2 19 1 4 3 -2 6 -13 5 -11 0 -14 -3 -6 -6z"/>
<path d="M10357 22889 c7 -7 15 -10 18 -7 3 3 -2 9 -12 12 -14 6 -15 5 -6 -5z"/>
<path d="M9798 22873 c7 -3 16 -2 19 1 4 3 -2 6 -13 5 -11 0 -14 -3 -6 -6z"/>
<path d="M9623 22863 c-7 -3 -13 -9 -13 -15 0 -7 5 -6 14 1 11 9 15 9 19 -1 4
-9 6 -9 6 -1 1 15 -10 22 -26 16z"/>
<path d="M9675 22862 c-10 -7 -18 -32 -10 -32 2 0 9 9 15 20 12 22 11 24 -5
12z"/>
<path d="M9765 22860 c3 -5 8 -10 11 -10 2 0 4 5 4 10 0 6 -5 10 -11 10 -5 0
-7 -4 -4 -10z"/>
<path d="M9885 22830 c3 -5 8 -10 11 -10 2 0 4 5 4 10 0 6 -5 10 -11 10 -5 0
-7 -4 -4 -10z"/>
<path d="M9405 22720 c-3 -5 -1 -10 4 -10 6 0 11 5 11 10 0 6 -2 10 -4 10 -3
0 -8 -4 -11 -10z"/>
<path d="M16191 21104 c0 -11 3 -14 6 -6 3 7 2 16 -1 19 -3 4 -6 -2 -5 -13z"/>
<path d="M16171 21028 c-1 -19 4 -28 14 -28 8 0 15 5 15 10 0 6 -4 10 -9 10
-5 0 -12 8 -14 18 -3 10 -5 6 -6 -10z"/>
<path d="M16173 20956 c5 -16 27 -19 27 -3 0 7 -7 14 -15 14 -9 0 -14 -5 -12
-11z"/>
<path d="M16173 20915 c0 -8 3 -15 7 -15 3 0 5 -30 3 -67 -1 -40 1 -62 6 -53
12 22 8 143 -5 147 -6 2 -11 -3 -11 -12z"/>
<path d="M16175 20751 c-3 -5 -1 -12 5 -16 5 -3 10 1 10 9 0 18 -6 21 -15 7z"/>
<path d="M18185 20621 c-53 -24 -142 -109 -150 -144 -13 -51 4 -58 129 -49
122 8 486 7 636 -2 328 -20 330 -20 665 -31 99 -3 230 -8 290 -10 61 -2 189
-7 285 -10 96 -4 207 -8 245 -10 185 -9 346 -15 520 -20 105 -3 222 -8 260
-10 72 -4 302 -12 580 -20 189 -6 390 -14 495 -19 41 -3 167 -7 280 -11 113
-3 234 -8 270 -10 36 -2 110 -7 165 -10 92 -6 102 -9 130 -34 28 -26 36 -29
110 -28 44 0 134 -3 200 -6 66 -4 199 -9 295 -12 96 -4 218 -8 270 -10 52 -2
212 -7 355 -10 143 -4 268 -9 277 -11 9 -1 113 -5 230 -9 307 -8 501 -14 680
-21 l157 -6 3 28 3 27 80 -3 c139 -7 239 -2 330 15 138 26 181 54 170 113 -8
41 -38 69 -80 76 -16 3 -165 10 -330 16 -1125 39 -2053 71 -2650 90 -170 6
-445 15 -610 20 -812 27 -1528 51 -1785 60 -157 5 -627 21 -1045 34 -418 14
-884 30 -1035 36 -359 13 -378 13 -425 -9z"/>
<path d="M27395 18581 c-23 -23 -179 -92 -246 -110 -156 -42 -203 -44 -620
-32 -217 7 -443 14 -504 16 -251 10 -722 26 -1045 35 -190 5 -509 15 -709 20
-364 11 -487 9 -239 -4 137 -7 422 -34 447 -42 8 -2 12 -6 10 -9 -9 -8 -316
-24 -574 -30 -549 -11 -946 -23 -1015 -30 -25 -3 -74 -7 -110 -11 -36 -3 -82
-13 -104 -22 -33 -13 -81 -14 -327 -9 -172 3 -290 2 -290 -4 -1 -5 -2 -12 -3
-16 -1 -5 -6 -183 -10 -398 -5 -214 -10 -403 -11 -420 -2 -16 -6 -230 -10
-475 -3 -245 -8 -519 -10 -610 -6 -211 -6 -785 0 -870 3 -36 5 -73 6 -82 0
-10 7 -18 15 -18 10 0 12 -5 7 -12 -10 -16 -12 -69 -3 -63 4 3 6 16 5 29 -4
29 23 44 32 18 4 -9 11 -20 17 -24 8 -5 7 -8 -1 -8 -7 0 -10 -7 -7 -15 7 -18
44 -20 44 -2 0 9 2 9 8 0 11 -18 40 -19 54 -3 7 8 12 14 11 11 -4 -6 25 -31
37 -31 6 0 4 8 -6 17 -11 11 -13 18 -5 21 6 2 8 8 5 14 -4 6 -1 8 7 6 8 -3 13
-12 11 -19 -2 -9 3 -7 16 4 15 14 21 15 25 5 4 -8 6 -7 6 5 1 9 6 17 12 17 19
0 50 -21 44 -31 -10 -15 1 -10 15 7 11 12 11 14 1 12 -7 -2 -17 7 -21 18 -7
18 -5 21 11 17 10 -3 16 -10 12 -16 -3 -6 -1 -7 5 -3 8 5 9 13 2 25 -7 15 -6
18 8 17 9 0 23 -8 30 -16 10 -13 11 -13 6 1 -3 10 -1 20 5 24 6 3 11 2 11 -4
0 -6 6 -8 14 -5 8 3 12 13 9 24 -6 21 12 36 23 19 4 -8 3 -9 -4 -5 -7 4 -12 1
-12 -8 0 -18 17 -30 25 -17 3 6 12 8 20 4 9 -3 15 1 15 10 0 9 4 19 10 22 6 3
7 -1 4 -9 -3 -9 -2 -16 4 -16 13 0 21 23 18 47 -2 10 -1 13 1 7 6 -18 45 -25
61 -12 10 9 15 9 21 -1 6 -10 10 -9 15 4 3 10 2 23 -4 30 -7 9 -7 15 -1 19 5
4 13 0 18 -7 4 -8 19 -20 33 -27 22 -12 23 -11 13 1 -7 9 -8 20 -3 29 5 8 6
18 3 24 -3 5 -1 6 6 2 6 -4 18 -3 25 3 11 9 12 6 8 -14 -4 -25 -3 -25 23 -13
15 7 22 14 16 16 -9 3 -9 8 0 18 10 12 14 12 20 2 7 -11 9 -11 9 0 0 7 6 10
13 7 6 -4 2 2 -11 12 -21 18 -22 19 -3 19 11 0 17 -4 15 -8 -6 -10 10 -11 19
-1 4 3 2 12 -5 20 -6 7 -8 16 -4 20 3 3 6 1 6 -5 0 -11 52 -44 77 -48 6 -1 10
6 8 18 -3 12 0 18 8 15 7 -3 11 -10 9 -16 -1 -7 2 -10 8 -6 6 3 8 9 6 13 -2 4
7 22 20 41 21 31 23 32 21 10 0 -13 -8 -29 -16 -35 -8 -6 -10 -13 -5 -16 5 -3
17 5 27 18 10 13 13 24 7 24 -6 0 -8 5 -5 10 4 6 10 8 14 5 5 -2 8 5 7 18 -1
18 4 21 23 19 14 -2 21 0 17 6 -4 6 -2 13 3 16 5 4 8 0 7 -6 -3 -20 -17 -39
-25 -34 -3 3 -7 -4 -7 -15 0 -10 4 -19 8 -19 4 0 8 5 8 10 0 21 41 51 61 45
12 -4 21 -1 25 9 3 9 10 13 15 10 5 -3 9 2 9 11 0 20 40 35 63 23 13 -7 17 -5
17 11 0 22 26 36 34 18 2 -7 5 -3 6 8 1 18 1 19 11 3 11 -20 39 -24 39 -7 0 6
-7 8 -16 5 -14 -6 -15 -4 -4 9 10 12 15 13 21 4 5 -9 14 -8 35 6 24 15 26 15
21 1 -6 -15 -4 -15 17 -1 12 8 26 12 31 8 4 -5 6 -1 3 7 -3 9 1 24 8 35 14 19
15 19 29 -2 8 -12 21 -20 27 -18 41 10 54 18 55 37 2 20 1 20 -12 2 -8 -11
-15 -14 -15 -8 0 6 10 19 22 30 12 10 19 15 16 9 -3 -5 -3 -18 1 -28 6 -17 8
-17 32 2 25 20 67 33 102 33 9 -1 17 3 17 8 0 9 -32 6 -50 -5 -6 -3 -10 -1
-10 4 0 6 4 11 10 11 5 0 18 9 29 21 14 15 21 17 26 8 6 -8 4 -10 -6 -4 -12 8
-12 6 0 -8 15 -18 26 -23 16 -7 -3 5 5 15 19 21 14 7 23 16 20 20 -3 5 0 9 5
9 6 0 11 -4 11 -10 0 -21 29 -9 50 20 23 32 55 31 47 -1 -3 -11 -1 -17 4 -13
5 3 9 12 9 21 0 13 2 14 18 2 15 -13 16 -12 4 3 -8 10 -19 16 -24 15 -6 -1
-13 4 -15 11 -4 11 -1 12 14 3 14 -7 24 -7 33 2 7 7 10 7 7 1 -3 -6 0 -11 8
-11 8 0 12 4 10 8 -3 4 2 10 11 13 8 3 13 10 9 15 -9 15 34 24 50 11 12 -10
15 -10 15 1 0 9 3 10 8 4 10 -14 44 -16 35 -2 -4 7 0 8 13 3 10 -4 15 -4 11 0
-3 4 11 16 33 26 22 11 37 24 34 29 -3 5 0 9 6 9 7 0 9 -8 5 -19 -5 -16 -2
-18 15 -14 11 3 19 8 16 10 -9 10 24 34 35 27 8 -4 9 -3 5 4 -4 7 -3 12 3 12
5 0 12 -6 14 -12 3 -7 6 2 6 20 1 17 5 32 9 32 16 0 30 -23 24 -39 -5 -14 -4
-14 12 -2 9 8 15 19 13 25 -6 16 40 38 47 22 3 -7 5 -6 5 2 1 7 6 10 11 7 6
-4 10 -3 9 2 -4 14 16 48 29 50 7 2 12 -7 12 -20 1 -80 13 -225 20 -234 2 -2
3 -7 4 -12 2 -17 16 -24 16 -9 0 9 7 19 16 22 8 3 12 11 8 17 -4 8 -3 9 5 5 8
-6 9 -12 2 -20 -8 -9 -4 -19 16 -37 14 -13 23 -19 19 -12 -3 6 -2 14 4 18 5 3
10 15 10 25 0 10 5 22 12 26 8 5 9 2 5 -10 -4 -10 -3 -15 3 -11 6 3 10 17 10
31 0 13 5 24 11 24 7 0 9 -12 7 -30 -3 -17 -2 -33 2 -35 4 -3 8 35 9 83 1 48
3 132 6 187 3 55 9 336 15 625 6 289 15 701 20 915 4 215 8 391 7 391 -3 3
-523 13 -637 14 -59 0 -100 4 -95 9 29 26 368 47 903 56 l343 5 -20 -21 c-12
-13 -26 -19 -35 -16 -9 4 -16 3 -16 -2 0 -4 -10 -7 -22 -6 -13 1 -33 -1 -44
-6 -12 -4 -25 -5 -28 -1 -10 9 -46 10 -39 0 3 -6 -9 -7 -26 -5 -17 3 -29 1
-25 -4 8 -13 -10 -11 -24 3 -10 10 -14 10 -20 1 -5 -7 -21 -11 -37 -8 -17 2
-24 2 -17 -1 6 -3 10 -9 7 -14 -5 -9 126 -15 625 -30 643 -19 908 -25 1110
-25 183 0 213 3 285 23 162 47 278 117 450 276 33 30 58 55 55 56 -4 0 -10 -4
-15 -9z m-3100 -2321 c3 -5 1 -10 -4 -10 -6 0 -11 5 -11 10 0 6 2 10 4 10 3 0
8 -4 11 -10z m-652 -290 c-3 -11 -9 -20 -14 -20 -14 0 -11 28 4 33 6 3 13 6
14 6 0 1 -1 -8 -4 -19z m-88 -10 c3 -5 1 -10 -4 -10 -6 0 -11 5 -11 10 0 6 2
10 4 10 3 0 8 -4 11 -10z m13 -29 c2 -1 0 -6 -3 -11 -5 -8 -11 -8 -19 -1 -7 6
-16 8 -19 4 -4 -3 -7 -1 -7 5 0 10 16 11 48 3z m-417 -148 c12 -16 12 -17 -2
-6 -9 7 -20 9 -24 5 -5 -4 -5 -1 -1 6 9 16 11 15 27 -5z m-141 -47 c0 -2 -7
-7 -16 -10 -8 -3 -12 -2 -9 4 6 10 25 14 25 6z m-57 -49 c-4 -7 -8 -15 -8 -19
0 -12 -19 -11 -23 1 -2 6 1 11 7 11 6 0 11 7 11 16 0 8 5 12 10 9 6 -4 7 -12
3 -18z m29 1 c-7 -7 -12 -8 -12 -2 0 14 12 26 19 19 2 -3 -1 -11 -7 -17z
m-331 -97 c-6 -10 -7 -21 -3 -25 3 -4 -2 -4 -12 0 -14 5 -15 9 -4 15 7 5 9 9
3 9 -5 0 -3 5 5 10 21 14 22 13 11 -9z m-21 -41 c0 -5 -5 -10 -11 -10 -5 0 -7
5 -4 10 3 6 8 10 11 10 2 0 4 -4 4 -10z m-414 -101 c4 -8 9 -7 15 2 5 9 11 10
16 4 5 -6 6 -9 4 -8 -2 2 -10 -2 -18 -9 -11 -9 -18 -8 -31 5 -9 10 -11 17 -5
17 7 0 15 -5 19 -11z m-26 -59 c0 -5 -4 -10 -10 -10 -5 0 -10 5 -10 10 0 6 5
10 10 10 6 0 10 -4 10 -10z"/>
<path d="M22207 18508 c-8 -5 -7 -8 3 -12 17 -6 47 -3 56 7 4 3 16 2 28 -4 20
-10 20 -10 2 5 -20 16 -66 18 -89 4z"/>
<path d="M22316 18508 c3 -5 10 -6 15 -3 13 9 11 12 -6 12 -8 0 -12 -4 -9 -9z"/>
<path d="M22355 18510 c-3 -5 -2 -10 4 -10 5 0 13 5 16 10 3 6 2 10 -4 10 -5
0 -13 -4 -16 -10z"/>
<path d="M22408 18503 c12 -2 30 -2 40 0 9 3 -1 5 -23 4 -22 0 -30 -2 -17 -4z"/>
<path d="M22148 18493 c7 -3 16 -2 19 1 4 3 -2 6 -13 5 -11 0 -14 -3 -6 -6z"/>
<path d="M24030 16142 c0 -5 11 -17 25 -26 24 -16 24 -15 16 6 -8 23 -41 38
-41 20z"/>
<path d="M23896 16081 c-4 -5 -2 -12 3 -15 5 -4 12 -2 15 3 4 5 2 12 -3 15 -5
4 -12 2 -15 -3z"/>
<path d="M23486 15911 c-4 -6 -2 -11 4 -11 6 0 8 -6 4 -12 -6 -10 -4 -10 7 0
9 9 10 15 2 23 -8 8 -13 8 -17 0z"/>
<path d="M23290 15830 c0 -6 7 -10 15 -10 8 0 15 2 15 4 0 2 -7 6 -15 10 -8 3
-15 1 -15 -4z"/>
<path d="M23229 15803 c-13 -16 -12 -17 4 -4 9 7 17 15 17 17 0 8 -8 3 -21
-13z"/>
<path d="M22880 15653 c0 -4 5 -15 10 -23 8 -13 10 -13 10 2 0 9 -4 20 -10 23
-5 3 -10 3 -10 -2z"/>
<path d="M22740 15591 c0 -5 5 -13 10 -16 6 -3 10 -2 10 4 0 5 -4 13 -10 16
-5 3 -10 2 -10 -4z"/>
<path d="M8894 15362 c3 -5 0 -13 -6 -15 -9 -4 -10 -6 -1 -6 17 -1 25 16 12
25 -7 4 -9 3 -5 -4z"/>
<path d="M22138 15323 c7 -3 16 -2 19 1 4 3 -2 6 -13 5 -11 0 -14 -3 -6 -6z"/>
<path d="M8895 15310 c-3 -5 -1 -10 4 -10 6 0 11 5 11 10 0 6 -2 10 -4 10 -3
0 -8 -4 -11 -10z"/>
<path d="M8996 15306 c4 -10 1 -16 -9 -16 -8 0 -17 -5 -19 -11 -3 -9 -10 -9
-28 0 l-25 12 25 -20 c14 -11 27 -21 30 -21 23 0 48 54 31 65 -7 3 -8 0 -5 -9z"/>
<path d="M8872 15230 c0 -14 2 -19 5 -12 2 6 2 18 0 25 -3 6 -5 1 -5 -13z"/>
<path d="M9006 15212 c-3 -5 1 -9 9 -9 8 0 12 4 9 9 -3 4 -7 8 -9 8 -2 0 -6
-4 -9 -8z"/>
<path d="M9214 15183 c4 -6 2 -14 -4 -18 -6 -4 -8 -10 -5 -15 3 -5 -3 -16 -12
-26 -17 -17 -17 -17 4 -12 15 4 24 0 28 -10 5 -14 7 -14 15 -2 15 24 12 46
-11 71 -11 13 -18 19 -15 12z"/>
<path d="M8872 15140 c1 -16 4 -27 7 -24 8 8 7 54 -1 54 -5 0 -7 -13 -6 -30z"/>
<path d="M9136 15154 c-4 -9 -1 -23 5 -30 14 -17 33 -18 22 -1 -11 18 -13 38
-2 31 5 -3 7 -10 4 -15 -4 -5 1 -9 9 -9 27 0 28 20 1 30 -33 13 -32 13 -39 -6z"/>
<path d="M8917 15139 c7 -7 15 -10 18 -7 3 3 -2 9 -12 12 -14 6 -15 5 -6 -5z"/>
<path d="M8983 15134 c-8 -8 -9 -15 -3 -19 6 -4 8 -11 5 -16 -4 -5 -1 -9 5 -9
6 0 8 -5 4 -12 -5 -9 -2 -9 9 1 12 9 17 10 17 2 0 -7 4 -9 10 -6 6 4 5 11 -3
19 -7 8 -14 10 -18 4 -3 -5 -9 -2 -13 7 -8 23 -8 27 4 20 6 -3 10 -2 10 4 0
17 -14 20 -27 5z"/>
<path d="M9108 15134 c-4 -3 -4 -13 -1 -21 3 -8 0 -19 -8 -25 -11 -7 -9 -9 8
-5 16 4 21 0 20 -14 -1 -14 -4 -15 -15 -7 -9 8 -16 8 -25 -2 -9 -9 -9 -11 0
-6 6 3 14 2 18 -4 3 -6 -1 -13 -9 -16 -9 -3 -16 -14 -15 -23 0 -10 2 -11 6 -3
2 6 8 10 13 7 4 -3 13 2 20 10 11 13 14 13 27 -2 9 -12 12 -13 8 -3 -4 8 1 6
10 -5 9 -11 21 -19 26 -17 5 1 9 -2 9 -8 0 -5 4 -10 8 -10 5 0 9 7 9 15 0 8
-9 15 -19 15 -10 0 -18 4 -18 9 0 5 11 8 25 5 14 -2 35 0 46 6 19 11 19 12 -9
38 -32 30 -69 39 -69 16 0 -8 4 -14 9 -14 17 0 7 -18 -14 -23 -26 -7 -38 7
-31 34 3 11 0 19 -6 19 -7 0 -10 4 -7 8 6 10 -9 34 -16 26z m125 -90 c-4 -12
-8 -11 -19 3 -7 10 -14 24 -14 32 0 11 4 10 19 -3 11 -10 17 -24 14 -32z"/>
<path d="M8921 15097 c-13 -21 -12 -21 5 -5 10 10 16 20 13 22 -3 3 -11 -5
-18 -17z"/>
<path d="M8932 15070 c-13 -11 -18 -21 -12 -25 5 -3 10 -1 10 4 0 6 5 11 11
11 5 0 8 -3 6 -7 -3 -5 2 -15 11 -23 14 -13 15 -12 7 5 -4 11 -8 28 -9 38 0 9
0 17 -1 17 0 -1 -10 -9 -23 -20z"/>
<path d="M9030 15060 c-8 -5 -10 -10 -5 -10 6 0 17 5 25 10 8 5 11 10 5 10 -5
0 -17 -5 -25 -10z"/>
<path d="M8995 15010 c3 -5 8 -10 11 -10 2 0 4 5 4 10 0 6 -5 10 -11 10 -5 0
-7 -4 -4 -10z"/>
<path d="M9125 14999 c-4 -6 -5 -12 -2 -15 2 -3 7 2 10 11 7 17 1 20 -8 4z"/>
<path d="M9033 14977 c0 -8 6 -14 14 -14 9 0 10 4 2 14 -6 7 -12 13 -14 13 -1
0 -2 -6 -2 -13z"/>
<path d="M9160 14980 c0 -5 5 -10 11 -10 5 0 7 5 4 10 -3 6 -8 10 -11 10 -2 0
-4 -4 -4 -10z"/>
<path d="M9291 14954 c0 -11 3 -14 6 -6 3 7 2 16 -1 19 -3 4 -6 -2 -5 -13z"/>
<path d="M9353 14897 c1 -15 5 -27 10 -27 10 0 9 22 -2 39 -7 10 -9 7 -8 -12z"/>
<path d="M9020 14899 c0 -5 5 -7 10 -4 6 3 10 8 10 11 0 2 -4 4 -10 4 -5 0
-10 -5 -10 -11z"/>
<path d="M9432 14893 c16 -4 16 -6 2 -31 -15 -26 -15 -26 1 -7 17 20 17 20 10
-2 -4 -14 -2 -23 4 -23 6 0 11 5 11 11 0 6 7 9 15 5 11 -4 8 4 -7 24 -12 17
-29 29 -37 29 -13 -1 -12 -2 1 -6z"/>
<path d="M9396 14874 c-9 -23 -7 -34 4 -34 5 0 6 7 3 17 -4 11 -3 14 5 9 8 -5
10 -2 6 8 -8 20 -10 20 -18 0z"/>
<path d="M9546 14843 c-4 -9 -1 -20 6 -24 17 -11 31 0 19 15 -6 7 -8 16 -4 19
3 4 2 7 -4 7 -6 0 -14 -8 -17 -17z"/>
<path d="M9261 14824 c0 -11 3 -14 6 -6 3 7 2 16 -1 19 -3 4 -6 -2 -5 -13z"/>
<path d="M9345 14820 c-3 -5 -1 -10 4 -10 6 0 11 5 11 10 0 6 -2 10 -4 10 -3
0 -8 -4 -11 -10z"/>
<path d="M9465 14820 c-3 -5 1 -10 10 -10 9 0 13 5 10 10 -3 6 -8 10 -10 10
-2 0 -7 -4 -10 -10z"/>
<path d="M9511 14804 c0 -11 3 -14 6 -6 3 7 2 16 -1 19 -3 4 -6 -2 -5 -13z"/>
<path d="M9470 14768 c0 -4 4 -8 9 -8 6 0 12 4 15 8 3 5 -1 9 -9 9 -8 0 -15
-4 -15 -9z"/>
<path d="M9517 14726 c-4 -10 -1 -13 9 -9 7 3 14 9 14 14 0 14 -17 10 -23 -5z"/>
<path d="M9592 14695 c4 -4 3 -14 -4 -22 -8 -11 -7 -12 6 -7 19 7 21 20 4 30
-7 4 -10 4 -6 -1z"/>
<path d="M9830 14670 c0 -5 -6 -9 -12 -7 -7 1 -11 -5 -9 -13 2 -8 4 -23 5 -32
0 -9 3 -15 6 -13 4 2 18 -2 33 -10 23 -12 25 -11 24 6 -1 10 -7 21 -15 24 -7
2 -10 0 -7 -5 3 -6 -1 -10 -10 -10 -9 0 -14 4 -11 9 4 5 0 11 -6 14 -7 3 1 4
17 3 17 0 31 2 33 7 5 16 1 28 -7 22 -5 -3 -12 -1 -16 5 -8 13 -25 13 -25 0z"/>
<path d="M9510 14636 c0 -9 30 -14 35 -6 4 6 -3 10 -14 10 -12 0 -21 -2 -21
-4z"/>
<path d="M9470 14616 c0 -2 8 -10 18 -17 15 -13 16 -12 3 4 -13 16 -21 21 -21
13z"/>
<path d="M9680 14611 c0 -5 3 -17 6 -26 5 -12 9 -14 14 -4 5 7 6 18 3 26 -6
15 -23 18 -23 4z"/>
<path d="M9897 14604 c-4 -4 -7 -19 -8 -33 0 -14 -3 -20 -6 -13 -2 6 -9 10
-14 6 -5 -3 -16 2 -25 11 -19 19 -36 16 -40 -8 -1 -9 2 -15 6 -12 5 3 11 1 15
-4 3 -6 12 -8 20 -4 9 3 21 1 28 -5 12 -9 57 1 57 13 0 4 -4 4 -9 0 -5 -3 -12
-2 -15 3 -2 4 4 9 15 9 22 2 26 -25 5 -33 -17 -7 -15 -56 3 -62 6 -2 8 -9 5
-14 -4 -7 -2 -8 5 -4 6 4 9 12 6 17 -4 5 1 9 10 9 9 0 14 -4 10 -9 -3 -5 -1
-13 5 -16 14 -9 42 14 34 27 -4 6 0 15 7 20 10 6 7 7 -10 3 -16 -5 -21 -4 -17
4 7 11 -5 15 -34 12 -12 -2 -13 0 -1 7 7 6 10 15 7 21 -4 6 -1 11 6 12 7 0 2
6 -12 12 -14 6 -30 18 -35 25 -6 7 -14 10 -18 6z m-62 -35 c11 -17 -1 -21 -15
-4 -8 9 -8 15 -2 15 6 0 14 -5 17 -11z m143 -72 c6 -5 12 -13 12 -19 0 -7 -5
-6 -15 2 -8 7 -23 9 -37 4 -20 -6 -21 -5 -10 9 13 16 28 17 50 4z"/>
<path d="M9505 14581 c-3 -5 -2 -12 3 -15 5 -3 9 1 9 9 0 17 -3 19 -12 6z"/>
<path d="M9775 14581 c3 -5 -3 -11 -12 -13 -15 -3 -14 -5 5 -10 17 -5 22 -2
22 13 0 10 -5 19 -11 19 -5 0 -8 -4 -4 -9z"/>
<path d="M9707 14539 c7 -7 15 -10 18 -7 3 3 -2 9 -12 12 -14 6 -15 5 -6 -5z"/>
<path d="M9692 14524 c10 -10 20 -16 22 -13 3 3 -5 11 -17 18 -21 13 -21 12
-5 -5z"/>
<path d="M9870 14516 c0 -2 7 -6 15 -10 8 -3 15 -1 15 4 0 6 -7 10 -15 10 -8
0 -15 -2 -15 -4z"/>
<path d="M9840 14480 c-11 -7 -11 -10 -2 -10 8 0 10 -5 6 -12 -5 -9 -2 -9 9 1
15 12 16 11 10 -19 -4 -23 -3 -31 5 -26 6 4 8 14 5 23 -5 12 -2 15 10 10 19
-7 19 10 0 30 -14 15 -23 16 -43 3z"/>
<path d="M10085 14430 c3 -5 1 -10 -5 -10 -7 0 -7 -7 2 -22 7 -13 11 -29 9
-37 -1 -7 2 -10 8 -6 14 8 14 35 1 35 -5 0 -10 5 -10 11 0 5 5 7 11 3 8 -4 8
0 0 15 -7 11 -14 21 -17 21 -3 0 -2 -4 1 -10z"/>
<path d="M10013 14402 c-8 -5 -9 -13 -3 -22 7 -10 10 -11 10 -2 0 6 3 11 8 10
4 -2 8 1 10 7 5 13 -10 17 -25 7z"/>
<path d="M10116 14337 c3 -10 9 -15 12 -12 3 3 0 11 -7 18 -10 9 -11 8 -5 -6z"/>
<path d="M10074 14310 c0 -34 4 -37 21 -13 10 13 10 19 -1 30 -18 19 -20 17
-20 -17z"/>
<path d="M10208 14263 c7 -3 16 -2 19 1 4 3 -2 6 -13 5 -11 0 -14 -3 -6 -6z"/>
<path d="M10246 14245 c-3 -8 -1 -15 4 -15 6 0 10 7 10 15 0 8 -2 15 -4 15 -2
0 -6 -7 -10 -15z"/>
<path d="M10135 14237 c-17 -13 -12 -47 7 -47 7 0 6 5 -1 13 -13 17 5 38 25
30 8 -3 14 -3 14 0 0 12 -30 15 -45 4z"/>
<path d="M10348 14243 c7 -3 16 -2 19 1 4 3 -2 6 -13 5 -11 0 -14 -3 -6 -6z"/>
<path d="M10180 14220 c-9 -6 -10 -10 -3 -10 6 0 15 5 18 10 8 12 4 12 -15 0z"/>
<path d="M10366 14185 c-16 -17 -13 -40 5 -29 5 3 6 11 2 17 -4 7 0 6 10 -2
18 -14 22 -5 8 17 -6 11 -11 10 -25 -3z"/>
<path d="M10165 14160 c-3 -5 -13 -7 -23 -4 -13 4 -12 3 2 -7 15 -9 21 -9 24
-1 2 7 8 10 13 6 5 -3 9 0 9 5 0 14 -17 14 -25 1z"/>
<path d="M10305 14161 c-3 -5 -2 -12 3 -15 5 -3 9 1 9 9 0 17 -3 19 -12 6z"/>
<path d="M10413 14135 c0 -8 5 -12 11 -9 6 3 0 -3 -13 -14 l-25 -20 27 5 c21
4 27 1 27 -12 0 -15 -2 -16 -17 -4 -16 13 -17 12 -5 -3 8 -9 11 -23 7 -30 -4
-7 1 -4 10 7 10 12 14 29 10 43 -4 15 -2 21 5 17 21 -13 9 3 -13 18 -19 12
-24 13 -24 2z"/>
<path d="M10560 14110 c0 -4 11 -10 25 -12 13 -3 22 -2 20 2 -7 11 -45 20 -45
10z"/>
<path d="M10425 14021 c-3 -5 -2 -12 3 -15 5 -3 9 1 9 9 0 17 -3 19 -12 6z"/>
<path d="M10715 14020 c-3 -5 -1 -10 4 -10 6 0 11 5 11 10 0 6 -2 10 -4 10 -3
0 -8 -4 -11 -10z"/>
<path d="M10613 13975 c0 -8 4 -12 9 -9 4 3 8 0 8 -7 0 -7 2 -10 5 -7 7 7 -5
38 -14 38 -4 0 -8 -7 -8 -15z"/>
<path d="M10660 13950 c-9 -6 -10 -10 -3 -10 6 0 15 5 18 10 8 12 4 12 -15 0z"/>
<path d="M10668 13921 c-17 -6 -17 -7 1 -18 15 -10 20 -9 25 2 7 18 -4 24 -26
16z"/>
<path d="M10622 13911 c-10 -6 -10 -11 4 -21 9 -8 22 -15 30 -16 16 -3 19 12
4 21 -5 3 -10 0 -10 -7 0 -10 -3 -9 -9 2 -6 8 -7 18 -5 22 6 10 3 10 -14 -1z"/>
<path d="M10845 13750 c-3 -5 -1 -10 4 -10 6 0 11 5 11 10 0 6 -2 10 -4 10 -3
0 -8 -4 -11 -10z"/>
<path d="M10912 13692 c1 -9 -1 -23 -6 -30 -4 -7 -6 -15 -4 -17 2 -3 12 9 21
24 15 26 15 30 1 35 -11 4 -14 1 -12 -12z"/>
<path d="M10955 13700 c3 -5 8 -10 11 -10 2 0 4 5 4 10 0 6 -5 10 -11 10 -5 0
-7 -4 -4 -10z"/>
<path d="M11008 13583 c-11 -41 55 -72 87 -42 5 6 4 9 -4 9 -8 0 -11 6 -7 16
4 12 2 15 -9 10 -10 -3 -15 1 -16 12 0 14 -2 14 -9 -3 -5 -11 -9 -14 -9 -7 -1
7 -5 11 -10 8 -5 -4 -11 -1 -13 6 -3 7 -7 3 -10 -9z m52 -23 c0 -13 -12 -19
-26 -13 -21 8 -17 19 6 19 11 0 20 -3 20 -6z"/>
<path d="M11036 13498 c3 -5 10 -6 15 -3 13 9 11 12 -6 12 -8 0 -12 -4 -9 -9z"/>
<path d="M11088 13483 c7 -3 16 -2 19 1 4 3 -2 6 -13 5 -11 0 -14 -3 -6 -6z"/>
<path d="M11087 13394 c-3 -3 -1 -14 6 -25 8 -13 14 -15 24 -7 10 8 12 7 7 -6
-3 -9 -2 -16 4 -16 14 0 8 35 -6 36 -7 1 -18 2 -24 3 -9 1 -8 4 2 11 8 5 10
10 4 10 -6 0 -13 -3 -17 -6z"/>
<path d="M11080 13320 c-8 -5 -12 -11 -10 -14 3 -2 14 2 24 10 22 15 10 19
-14 4z"/>
<path d="M11120 13315 c-7 -9 -8 -15 -2 -15 5 0 12 7 16 15 3 8 4 15 2 15 -2
0 -9 -7 -16 -15z"/>
<path d="M11126 13195 c-3 -8 -1 -15 4 -15 13 0 22 18 11 24 -5 3 -11 -1 -15
-9z"/>
<path d="M11194 11990 c1 -22 6 -34 14 -32 6 1 12 -2 12 -8 0 -5 5 -10 10 -10
6 0 10 9 10 21 0 11 -4 18 -9 15 -5 -3 -11 1 -14 8 -3 8 -3 17 1 19 4 2 2 2
-5 1 -6 -2 -14 2 -16 9 -3 7 -4 -4 -3 -23z"/>
<path d="M11270 11920 c0 -11 2 -20 4 -20 2 0 6 9 9 20 3 11 1 20 -4 20 -5 0
-9 -9 -9 -20z"/>
<path d="M11224 11918 c3 -10 2 -18 -3 -18 -4 0 -8 -7 -8 -15 0 -8 4 -12 9 -9
4 3 8 0 8 -7 0 -15 59 -69 74 -68 6 0 5 3 -2 6 -6 2 -10 8 -7 13 3 5 -4 11
-15 15 -23 7 -26 20 -7 29 6 4 3 5 -9 2 -23 -4 -29 19 -10 43 9 12 8 13 -3 7
-8 -5 -17 -3 -23 5 -8 11 -9 10 -4 -3z"/>
<path d="M11313 11865 c-3 -9 -3 -18 -1 -21 3 -3 8 4 11 16 6 23 -1 27 -10 5z"/>
<path d="M11320 11791 c0 -5 -12 -8 -27 -5 -20 3 -24 2 -13 -5 8 -5 17 -8 21
-6 4 3 9 -9 13 -25 4 -20 11 -30 23 -30 17 1 17 1 1 10 -11 7 -15 20 -13 40 2
17 2 30 0 30 -3 0 -5 -4 -5 -9z"/>
<path d="M21355 10760 c-159 -24 -339 -103 -472 -207 -84 -65 -202 -188 -237
-246 -34 -57 -90 -142 -95 -147 -25 -22 -111 -226 -131 -310 -6 -25 -13 -54
-15 -65 -3 -11 -8 -69 -11 -130 -7 -137 12 -293 47 -380 4 -11 13 -38 20 -60
16 -51 93 -204 119 -236 29 -36 33 -41 54 -73 10 -17 31 -40 45 -52 14 -13 51
-45 81 -73 30 -28 58 -51 63 -51 4 0 13 -5 20 -10 57 -50 217 -131 297 -151
25 -6 72 -17 105 -25 60 -14 285 -22 321 -10 10 3 35 8 54 11 149 25 388 138
438 207 7 10 20 18 28 18 8 0 14 5 14 10 0 6 4 10 8 10 12 0 162 147 219 215
70 83 155 241 193 359 157 486 -48 1019 -488 1271 -106 60 -248 110 -355 125
-88 11 -246 11 -322 0z"/>
<path d="M24330 8504 c0 -29 -50 -221 -83 -319 -215 -635 -759 -1107 -1407
-1220 l-75 -13 61 -1 c33 -1 110 6 170 14 746 105 1333 657 1485 1398 12 59
19 110 15 114 -6 6 -166 32 -166 27z"/>
<path d="M10863 4972 c-35 -15 -63 -30 -63 -35 0 -11 54 4 62 17 4 6 11 12 15
12 26 5 53 18 53 25 0 11 6 13 -67 -19z"/>
<path d="M10765 4923 c-10 -3 -29 -12 -40 -19 -12 -8 -25 -11 -28 -7 -4 3 -7
1 -7 -5 0 -7 -7 -12 -15 -12 -8 0 -15 -4 -15 -10 0 -15 37 -12 43 4 3 8 19 17
36 21 16 3 35 13 42 21 6 8 10 13 8 13 -2 -1 -13 -4 -24 -6z"/>
<path d="M10583 4843 c-18 -9 -33 -21 -33 -25 0 -5 -4 -6 -10 -3 -5 3 -22 -2
-37 -12 -15 -10 -30 -17 -33 -16 -10 5 -40 -8 -40 -18 0 -5 -5 -9 -12 -9 -18
0 -128 -44 -128 -51 0 -15 40 -16 48 -2 5 8 16 15 25 17 9 1 20 5 23 9 4 4 15
7 23 7 9 0 22 9 29 20 10 17 20 20 52 16 29 -3 40 -1 40 9 0 8 8 12 20 10 11
-2 20 0 20 6 0 5 7 9 15 9 14 0 55 34 55 45 0 9 -25 4 -57 -12z"/>
<path d="M10236 4685 c-11 -8 -17 -17 -15 -20 7 -6 59 18 59 28 0 12 -23 8
-44 -8z"/>
<path d="M10135 4639 c-4 -6 -5 -12 -2 -15 2 -3 7 2 10 11 7 17 1 20 -8 4z"/>
</g>
</svg>
